<svg width="320" height="568" viewBox="0 0 320 568" fill="none" xmlns="http://www.w3.org/2000/svg">
<g clip-path="url(#clip0_1_65127)">
<rect width="320" height="568" fill="white"/>
<g opacity="0.68">
<path d="M0 0H320V127H0V0Z" fill="#1C1B1B"/>
</g>
<rect x="106" y="554" width="108" height="4" rx="2" fill="#1C1B1B"/>
<g clip-path="url(#clip1_1_65127)">
<path d="M0 58C0 42.536 12.536 30 28 30H292C307.464 30 320 42.536 320 58V544H0V58Z" fill="white"/>
<g clip-path="url(#clip2_1_65127)">
<mask id="mask0_1_65127" style="mask-type:alpha" maskUnits="userSpaceOnUse" x="12" y="54" width="24" height="24">
<rect x="12" y="54" width="24" height="24" fill="#D9D9D9"/>
</mask>
<g mask="url(#mask0_1_65127)">
<path d="M19.3749 66.7501L24.5442 71.9193C24.6928 72.068 24.7662 72.242 24.7644 72.4413C24.7624 72.6406 24.6839 72.8179 24.5289 72.9731C24.3737 73.1179 24.1981 73.1929 24.0019 73.1981C23.8057 73.2032 23.6301 73.1282 23.4749 72.9731L17.1347 66.6328C17.041 66.5391 16.975 66.4404 16.9367 66.3366C16.8982 66.2327 16.8789 66.1206 16.8789 66.0001C16.8789 65.8796 16.8982 65.7674 16.9367 65.6636C16.975 65.5597 17.041 65.461 17.1347 65.3673L23.4749 59.0271C23.6134 58.8886 23.7849 58.8177 23.9894 58.8146C24.1939 58.8114 24.3737 58.8822 24.5289 59.0271C24.6839 59.1822 24.7614 59.3604 24.7614 59.5616C24.7614 59.7629 24.6839 59.9411 24.5289 60.0963L19.3749 65.2501H30.7519C30.9647 65.2501 31.1429 65.3219 31.2864 65.4656C31.4301 65.6091 31.5019 65.7872 31.5019 66.0001C31.5019 66.2129 31.4301 66.3911 31.2864 66.5346C31.1429 66.6782 30.9647 66.7501 30.7519 66.7501H19.3749Z" fill="#6B7274"/>
</g>
</g>
<path d="M107.876 72.22C106.659 72.22 105.691 71.9193 104.972 71.318C104.254 70.7167 103.894 69.844 103.894 68.7C103.894 67.5853 104.246 66.7273 104.95 66.126C105.669 65.5247 106.644 65.224 107.876 65.224H111.704V64.08C111.704 62.188 110.67 61.242 108.602 61.242C107.722 61.242 106.982 61.4253 106.38 61.792C105.794 62.144 105.317 62.6353 104.95 63.266L103.828 62.276C104.21 61.5573 104.796 60.956 105.588 60.472C106.38 59.9733 107.414 59.724 108.69 59.724C109.952 59.724 110.971 59.988 111.748 60.516C111.807 59.7533 112.218 59.372 112.98 59.372H115.906V61H112.364C113.098 61.7333 113.464 62.7307 113.464 63.992V72H111.704V66.478H108.272C107.48 66.478 106.864 66.6467 106.424 66.984C105.984 67.3213 105.764 67.798 105.764 68.414V68.92C105.764 69.58 105.962 70.086 106.358 70.438C106.769 70.7753 107.319 70.944 108.008 70.944C108.214 70.944 108.382 70.9367 108.514 70.922C108.661 70.9073 108.778 70.8927 108.866 70.878L109.02 72.088C108.932 72.132 108.764 72.1613 108.514 72.176C108.28 72.2053 108.067 72.22 107.876 72.22ZM123.195 72.264C122.681 72.264 122.234 72.198 121.853 72.066C121.471 71.9487 121.141 71.7873 120.863 71.582C120.584 71.3767 120.349 71.142 120.159 70.878C119.983 70.614 119.836 70.3353 119.719 70.042H119.609V72H117.849V59.988H119.609V68.304C119.609 68.7147 119.697 69.074 119.873 69.382C120.049 69.69 120.276 69.9467 120.555 70.152C120.848 70.3573 121.171 70.5113 121.523 70.614C121.889 70.7167 122.263 70.768 122.645 70.768C123.613 70.768 124.339 70.4893 124.823 69.932C125.321 69.36 125.571 68.524 125.571 67.424V59.988H127.331V67.644C127.331 69.1253 126.964 70.2693 126.231 71.076C125.497 71.868 124.485 72.264 123.195 72.264ZM125.474 57.634C124.814 57.634 124.33 57.4727 124.022 57.15C123.714 56.8273 123.56 56.402 123.56 55.874V54.51H125.32V56.116H130.93V57.634H125.474ZM130.844 64.476C130.844 63.7573 130.961 63.1047 131.196 62.518C131.445 61.9313 131.797 61.4327 132.252 61.022C132.707 60.5967 133.257 60.274 133.902 60.054C134.547 59.834 135.273 59.724 136.08 59.724C136.872 59.724 137.591 59.834 138.236 60.054C138.881 60.274 139.431 60.5967 139.886 61.022C140.341 61.4327 140.693 61.9313 140.942 62.518C141.191 63.1047 141.316 63.7573 141.316 64.476V72H139.556V64.652C139.556 63.552 139.248 62.7087 138.632 62.122C138.031 61.5353 137.18 61.242 136.08 61.242C134.98 61.242 134.122 61.5353 133.506 62.122C132.905 62.7087 132.604 63.552 132.604 64.652V67.512H132.714C132.817 67.2333 132.956 66.9693 133.132 66.72C133.308 66.456 133.528 66.2287 133.792 66.038C134.056 65.8327 134.364 65.6713 134.716 65.554C135.083 65.4367 135.501 65.378 135.97 65.378H136.696V67.138H135.684C134.745 67.138 133.997 67.3213 133.44 67.688C132.883 68.0547 132.604 68.5607 132.604 69.206V72H130.844V64.476ZM149.054 72.264C147.954 72.264 147.016 72.066 146.238 71.67C145.461 71.274 144.808 70.7167 144.28 69.998L145.534 68.986C145.989 69.602 146.51 70.0567 147.096 70.35C147.698 70.6287 148.394 70.768 149.186 70.768C150.066 70.768 150.734 70.5993 151.188 70.262C151.658 69.9247 151.892 69.426 151.892 68.766C151.892 68.2087 151.709 67.776 151.342 67.468C150.99 67.1453 150.418 66.9253 149.626 66.808L148.592 66.654C148.123 66.5807 147.661 66.478 147.206 66.346C146.752 66.214 146.334 66.0233 145.952 65.774C145.586 65.5247 145.285 65.1947 145.05 64.784C144.83 64.3733 144.72 63.86 144.72 63.244C144.72 62.672 144.823 62.166 145.028 61.726C145.248 61.286 145.549 60.9193 145.93 60.626C146.326 60.3327 146.788 60.1127 147.316 59.966C147.844 59.8047 148.416 59.724 149.032 59.724C150.074 59.724 150.939 59.9 151.628 60.252C152.332 60.5893 152.919 61.0367 153.388 61.594L152.266 62.65C151.944 62.2687 151.511 61.9387 150.968 61.66C150.426 61.3667 149.766 61.22 148.988 61.22C148.167 61.22 147.536 61.3887 147.096 61.726C146.656 62.0633 146.436 62.5327 146.436 63.134C146.436 63.7793 146.649 64.234 147.074 64.498C147.5 64.762 148.086 64.9527 148.834 65.07L149.868 65.224C150.411 65.312 150.91 65.4293 151.364 65.576C151.819 65.7227 152.208 65.928 152.53 66.192C152.868 66.456 153.132 66.786 153.322 67.182C153.513 67.5633 153.608 68.0327 153.608 68.59C153.608 69.734 153.198 70.636 152.376 71.296C151.57 71.9413 150.462 72.264 149.054 72.264ZM160.169 72.22C158.952 72.22 157.984 71.9193 157.265 71.318C156.547 70.7167 156.187 69.844 156.187 68.7C156.187 67.5853 156.539 66.7273 157.243 66.126C157.962 65.5247 158.937 65.224 160.169 65.224H163.997V64.08C163.997 62.188 162.963 61.242 160.895 61.242C160.015 61.242 159.275 61.4253 158.673 61.792C158.087 62.144 157.61 62.6353 157.243 63.266L156.121 62.276C156.503 61.5573 157.089 60.956 157.881 60.472C158.673 59.9733 159.707 59.724 160.983 59.724C162.245 59.724 163.264 59.988 164.041 60.516C164.1 59.7533 164.511 59.372 165.273 59.372H168.199V61H164.657C165.391 61.7333 165.757 62.7307 165.757 63.992V72H163.997V66.478H160.565C159.773 66.478 159.157 66.6467 158.717 66.984C158.277 67.3213 158.057 67.798 158.057 68.414V68.92C158.057 69.58 158.255 70.086 158.651 70.438C159.062 70.7753 159.612 70.944 160.301 70.944C160.507 70.944 160.675 70.9367 160.807 70.922C160.954 70.9073 161.071 70.8927 161.159 70.878L161.313 72.088C161.225 72.132 161.057 72.1613 160.807 72.176C160.573 72.2053 160.36 72.22 160.169 72.22ZM175.487 72.264C174.974 72.264 174.527 72.198 174.145 72.066C173.764 71.9487 173.434 71.7873 173.155 71.582C172.877 71.3767 172.642 71.142 172.451 70.878C172.275 70.614 172.129 70.3353 172.011 70.042H171.901V72H170.141V59.988H171.901V68.304C171.901 68.7147 171.989 69.074 172.165 69.382C172.341 69.69 172.569 69.9467 172.847 70.152C173.141 70.3573 173.463 70.5113 173.815 70.614C174.182 70.7167 174.556 70.768 174.937 70.768C175.905 70.768 176.631 70.4893 177.115 69.932C177.614 69.36 177.863 68.524 177.863 67.424V59.988H179.623V67.644C179.623 69.1253 179.257 70.2693 178.523 71.076C177.79 71.868 176.778 72.264 175.487 72.264ZM188.483 63.75C188.483 62.0633 187.61 61.22 185.865 61.22C185.161 61.22 184.582 61.374 184.127 61.682C183.687 61.99 183.313 62.4007 183.005 62.914L181.927 61.968C182.264 61.3227 182.756 60.7873 183.401 60.362C184.061 59.9367 184.919 59.724 185.975 59.724C187.354 59.724 188.41 60.0613 189.143 60.736C189.876 61.4107 190.243 62.364 190.243 63.596V72H188.483V63.75ZM198.238 72.264C196.859 72.264 195.744 71.912 194.894 71.208C194.058 70.504 193.64 69.4333 193.64 67.996C193.64 67.5707 193.669 67.1967 193.728 66.874C193.801 66.5367 193.889 66.236 193.992 65.972C194.109 65.6933 194.241 65.4367 194.388 65.202C194.534 64.9673 194.696 64.74 194.872 64.52C195.18 64.1093 195.436 63.7133 195.642 63.332C195.847 62.9507 195.95 62.5473 195.95 62.122V61.528H193.442V59.988H196.016C196.558 59.988 196.969 60.1347 197.248 60.428C197.541 60.7067 197.688 61.0807 197.688 61.55V61.748C197.688 62.276 197.585 62.7673 197.38 63.222C197.189 63.662 196.903 64.1827 196.522 64.784C196.184 65.2973 195.935 65.7667 195.774 66.192C195.612 66.6027 195.532 67.0573 195.532 67.556V68.238C195.532 69.1033 195.774 69.7413 196.258 70.152C196.742 70.548 197.387 70.746 198.194 70.746C199.03 70.746 199.675 70.548 200.13 70.152C200.584 69.7413 200.812 69.162 200.812 68.414V66.5C200.812 65.752 200.665 65.18 200.372 64.784C200.078 64.3733 199.675 64.168 199.162 64.168H198.546V62.76H199.206C199.719 62.76 200.122 62.6133 200.416 62.32C200.724 62.012 200.878 61.5207 200.878 60.846V59.636H202.638V60.78C202.638 61.1467 202.572 61.4767 202.44 61.77C202.308 62.0487 202.139 62.2907 201.934 62.496C201.728 62.7013 201.486 62.87 201.208 63.002C200.944 63.1193 200.672 63.2 200.394 63.244V63.354C201.171 63.574 201.75 64.0507 202.132 64.784C202.513 65.5173 202.704 66.39 202.704 67.402C202.704 68.9127 202.315 70.1007 201.538 70.966C200.76 71.8313 199.66 72.264 198.238 72.264ZM193.67 56.116H202.646V57.634H193.67V56.116ZM207.012 65.136L205.142 64.344C205.186 63.6693 205.348 63.0533 205.626 62.496C205.92 61.924 206.301 61.4327 206.77 61.022C207.24 60.6113 207.782 60.296 208.398 60.076C209.029 59.8413 209.711 59.724 210.444 59.724C212.16 59.724 213.473 60.1567 214.382 61.022C215.292 61.8727 215.746 63.0313 215.746 64.498V72H213.986V64.718C213.986 63.574 213.664 62.7087 213.018 62.122C212.388 61.5353 211.552 61.242 210.51 61.242C210.056 61.242 209.623 61.3007 209.212 61.418C208.816 61.5207 208.457 61.6747 208.134 61.88C207.812 62.0707 207.533 62.3127 207.298 62.606C207.064 62.8847 206.895 63.2 206.792 63.552L207.892 63.992C208.2 64.1093 208.42 64.2633 208.552 64.454C208.699 64.63 208.772 64.8793 208.772 65.202V72H207.012V65.136Z" fill="#1C1B1B"/>
<path d="M19.834 125C19.15 125 18.646 124.826 18.322 124.478C17.998 124.13 17.836 123.644 17.836 123.02V115.118H19.798V123.398H21.202V125H19.834ZM27.4776 125.216C26.8176 125.216 26.2236 125.126 25.6956 124.946C25.1796 124.754 24.7356 124.49 24.3636 124.154C24.0036 123.806 23.7216 123.392 23.5176 122.912C23.3256 122.42 23.2296 121.874 23.2296 121.274V115.118H25.1916V121.13C25.1916 121.922 25.3896 122.534 25.7856 122.966C26.1936 123.398 26.7576 123.614 27.4776 123.614C28.1976 123.614 28.7556 123.398 29.1516 122.966C29.5596 122.534 29.7636 121.922 29.7636 121.13V115.118H31.7256V121.274C31.7256 121.874 31.6236 122.42 31.4196 122.912C31.2276 123.392 30.9456 123.806 30.5736 124.154C30.2136 124.49 29.7696 124.754 29.2416 124.946C28.7256 125.126 28.1376 125.216 27.4776 125.216ZM38.2908 125.216C37.6908 125.216 37.1268 125.132 36.5988 124.964C36.0828 124.784 35.6328 124.544 35.2488 124.244C34.8768 123.932 34.5828 123.56 34.3668 123.128C34.1508 122.696 34.0428 122.216 34.0428 121.688V120.788C34.0428 120.368 34.1388 120.044 34.3308 119.816C34.5228 119.576 34.8708 119.456 35.3748 119.456H37.3908V121.004H35.8968V121.544C35.8968 122.264 36.1188 122.792 36.5628 123.128C37.0188 123.452 37.6248 123.614 38.3808 123.614C39.1608 123.614 39.7608 123.374 40.1808 122.894C40.6128 122.414 40.8288 121.736 40.8288 120.86V119.312C40.8288 118.424 40.5888 117.734 40.1088 117.242C39.6408 116.75 38.9748 116.504 38.1108 116.504C37.3908 116.504 36.7728 116.654 36.2568 116.954C35.7528 117.254 35.3688 117.614 35.1048 118.034L33.8808 116.936C34.2288 116.36 34.7628 115.88 35.4828 115.496C36.2028 115.1 37.1088 114.902 38.2008 114.902C39.6888 114.902 40.8468 115.358 41.6748 116.27C42.5028 117.17 42.9168 118.43 42.9168 120.05C42.9168 120.842 42.8148 121.562 42.6108 122.21C42.4068 122.846 42.1068 123.386 41.7108 123.83C41.3148 124.274 40.8288 124.616 40.2528 124.856C39.6768 125.096 39.0228 125.216 38.2908 125.216ZM48.9093 125.216C47.9853 125.216 47.1993 125.06 46.5513 124.748C45.9153 124.424 45.3573 123.974 44.8773 123.398L46.1193 122.228C46.4793 122.684 46.8993 123.032 47.3793 123.272C47.8593 123.512 48.4053 123.632 49.0173 123.632C49.6653 123.632 50.1453 123.518 50.4573 123.29C50.7813 123.05 50.9433 122.714 50.9433 122.282C50.9433 121.898 50.8173 121.604 50.5653 121.4C50.3253 121.184 49.9413 121.04 49.4133 120.968L48.4953 120.842C48.0513 120.782 47.6313 120.686 47.2353 120.554C46.8393 120.422 46.4913 120.242 46.1913 120.014C45.9033 119.786 45.6693 119.504 45.4893 119.168C45.3213 118.832 45.2373 118.418 45.2373 117.926C45.2373 117.446 45.3273 117.02 45.5073 116.648C45.6873 116.264 45.9393 115.946 46.2633 115.694C46.5873 115.43 46.9713 115.232 47.4153 115.1C47.8713 114.968 48.3693 114.902 48.9093 114.902C49.8093 114.902 50.5473 115.04 51.1233 115.316C51.6993 115.58 52.2093 115.952 52.6533 116.432L51.4653 117.62C51.1893 117.308 50.8353 117.044 50.4033 116.828C49.9713 116.612 49.4733 116.504 48.9093 116.504C48.3213 116.504 47.8773 116.618 47.5773 116.846C47.2773 117.074 47.1273 117.386 47.1273 117.782C47.1273 118.202 47.2653 118.514 47.5413 118.718C47.8173 118.922 48.2253 119.06 48.7653 119.132L49.6833 119.276C50.1513 119.348 50.5773 119.45 50.9613 119.582C51.3573 119.714 51.6933 119.894 51.9693 120.122C52.2453 120.338 52.4553 120.608 52.5993 120.932C52.7553 121.256 52.8333 121.646 52.8333 122.102C52.8333 122.57 52.7373 122.996 52.5453 123.38C52.3653 123.764 52.1013 124.094 51.7533 124.37C51.4173 124.634 51.0033 124.844 50.5113 125C50.0313 125.144 49.4973 125.216 48.9093 125.216ZM49.2616 112.076C49.2616 111.536 49.4176 111.122 49.7296 110.834C50.0416 110.534 50.5096 110.384 51.1336 110.384H54.7876V111.932H50.9896V113.354H49.2616V112.076ZM60.0473 125C59.3633 125 58.8533 124.826 58.5173 124.478C58.1933 124.13 58.0313 123.644 58.0313 123.02V113.732L55.7273 112.76V112.364C55.7273 111.848 55.8173 111.38 55.9973 110.96C56.1653 110.528 56.4113 110.168 56.7353 109.88C57.0593 109.58 57.4433 109.352 57.8873 109.196C58.3433 109.028 58.8473 108.944 59.3993 108.944C60.1913 108.944 60.8393 109.064 61.3433 109.304C61.8593 109.544 62.2913 109.874 62.6393 110.294L61.4513 111.41C61.2593 111.17 61.0013 110.966 60.6773 110.798C60.3653 110.618 59.9693 110.528 59.4893 110.528C58.9493 110.528 58.4813 110.642 58.0853 110.87C57.6893 111.098 57.4673 111.458 57.4193 111.95L59.1113 112.634C59.4473 112.766 59.6753 112.922 59.7953 113.102C59.9273 113.282 59.9933 113.558 59.9933 113.93V123.398H61.3973V125H60.0473ZM63.5149 115.118H65.4769V116.756H65.5669C65.6509 116.516 65.7709 116.288 65.9269 116.072C66.0829 115.844 66.2749 115.646 66.5029 115.478C66.7309 115.298 67.0009 115.16 67.3129 115.064C67.6369 114.956 68.0089 114.902 68.4289 114.902C69.4849 114.902 70.3009 115.232 70.8769 115.892C71.4529 116.552 71.7409 117.5 71.7409 118.736V125H69.7789V118.952C69.7789 118.208 69.6169 117.632 69.2929 117.224C68.9809 116.804 68.4469 116.594 67.6909 116.594C67.4149 116.594 67.1449 116.63 66.8809 116.702C66.6169 116.762 66.3829 116.864 66.1789 117.008C65.9749 117.152 65.8069 117.338 65.6749 117.566C65.5429 117.782 65.4769 118.04 65.4769 118.34V125H63.5149V115.118ZM78.1441 125.216C77.2201 125.216 76.4341 125.06 75.7861 124.748C75.1501 124.424 74.5921 123.974 74.1121 123.398L75.3541 122.228C75.7141 122.684 76.1341 123.032 76.6141 123.272C77.0941 123.512 77.6401 123.632 78.2521 123.632C78.9001 123.632 79.3801 123.518 79.6921 123.29C80.0161 123.05 80.1781 122.714 80.1781 122.282C80.1781 121.898 80.0521 121.604 79.8001 121.4C79.5601 121.184 79.1761 121.04 78.6481 120.968L77.7301 120.842C77.2861 120.782 76.8661 120.686 76.4701 120.554C76.0741 120.422 75.7261 120.242 75.4261 120.014C75.1381 119.786 74.9041 119.504 74.7241 119.168C74.5561 118.832 74.4721 118.418 74.4721 117.926C74.4721 117.446 74.5621 117.02 74.7421 116.648C74.9221 116.264 75.1741 115.946 75.4981 115.694C75.8221 115.43 76.2061 115.232 76.6501 115.1C77.1061 114.968 77.6041 114.902 78.1441 114.902C79.0441 114.902 79.7821 115.04 80.3581 115.316C80.9341 115.58 81.4441 115.952 81.8881 116.432L80.7001 117.62C80.4241 117.308 80.0701 117.044 79.6381 116.828C79.2061 116.612 78.7081 116.504 78.1441 116.504C77.5561 116.504 77.1121 116.618 76.8121 116.846C76.5121 117.074 76.3621 117.386 76.3621 117.782C76.3621 118.202 76.5001 118.514 76.7761 118.718C77.0521 118.922 77.4601 119.06 78.0001 119.132L78.9181 119.276C79.3861 119.348 79.8121 119.45 80.1961 119.582C80.5921 119.714 80.9281 119.894 81.2041 120.122C81.4801 120.338 81.6901 120.608 81.8341 120.932C81.9901 121.256 82.0681 121.646 82.0681 122.102C82.0681 122.57 81.9721 122.996 81.7801 123.38C81.6001 123.764 81.3361 124.094 80.9881 124.37C80.6521 124.634 80.2381 124.844 79.7461 125C79.2661 125.144 78.7321 125.216 78.1441 125.216ZM84.432 118.934C84.432 118.322 84.534 117.77 84.738 117.278C84.954 116.774 85.26 116.348 85.656 116C86.052 115.64 86.526 115.37 87.078 115.19C87.642 114.998 88.272 114.902 88.968 114.902C90.132 114.902 91.092 115.154 91.848 115.658C91.92 114.95 92.328 114.596 93.072 114.596H95.52V116.306H92.604V116.36C93.204 117.032 93.504 117.89 93.504 118.934V125H91.542V119.06C91.542 118.232 91.314 117.602 90.858 117.17C90.402 116.726 89.772 116.504 88.968 116.504C88.164 116.504 87.534 116.726 87.078 117.17C86.622 117.602 86.394 118.232 86.394 119.06V121.328H86.484C86.556 121.088 86.658 120.854 86.79 120.626C86.922 120.398 87.09 120.2 87.294 120.032C87.498 119.852 87.744 119.708 88.032 119.6C88.32 119.492 88.656 119.438 89.04 119.438H89.58V121.328H88.824C88.044 121.328 87.444 121.46 87.024 121.724C86.604 121.976 86.394 122.372 86.394 122.912V125H84.432V118.934ZM91.7306 113.354C91.1066 113.354 90.6386 113.204 90.3266 112.904C90.0146 112.604 89.8586 112.184 89.8586 111.644V110.384H91.5866V111.806H96.2666V113.354H91.7306ZM97.1011 115.118H98.9551L99.5491 119.996L99.7651 122.768H99.8731L100.557 119.996L101.889 115.118H103.383L104.715 119.996L105.399 122.768H105.507L105.723 119.996L106.317 115.118H108.135L106.731 125H104.643L103.185 119.384L102.663 117.206H102.573L102.051 119.384L100.593 125H98.5051L97.1011 115.118ZM110.759 115.118H112.721V116.756H112.811C112.895 116.516 113.015 116.288 113.171 116.072C113.327 115.844 113.519 115.646 113.747 115.478C113.975 115.298 114.245 115.16 114.557 115.064C114.881 114.956 115.253 114.902 115.673 114.902C116.729 114.902 117.545 115.232 118.121 115.892C118.697 116.552 118.985 117.5 118.985 118.736V125H117.023V118.952C117.023 118.208 116.861 117.632 116.537 117.224C116.225 116.804 115.691 116.594 114.935 116.594C114.659 116.594 114.389 116.63 114.125 116.702C113.861 116.762 113.627 116.864 113.423 117.008C113.219 117.152 113.051 117.338 112.919 117.566C112.787 117.782 112.721 118.04 112.721 118.34V125H110.759V115.118ZM115.448 112.076C115.448 111.536 115.604 111.122 115.916 110.834C116.228 110.534 116.696 110.384 117.32 110.384H120.974V111.932H117.176V113.354H115.448V112.076Z" fill="#1C1B1B"/>
<path d="M127.944 119.168L126.576 118.214L128.484 115.838L125.622 115.01L126.144 113.444L128.898 114.524L128.772 111.554H130.482L130.356 114.524L133.11 113.444L133.65 115.01L130.77 115.838L132.678 118.214L131.31 119.168L129.618 116.648L127.944 119.168Z" fill="#BA1A1A"/>
<rect x="16.5" y="146.5" width="287" height="39" rx="3.5" stroke="#1C1B1B"/>
<path d="M36.352 171.192C35.552 171.192 34.8693 171.048 34.304 170.76C33.7387 170.472 33.264 170.067 32.88 169.544L33.792 168.808C34.1227 169.256 34.5013 169.587 34.928 169.8C35.3653 170.003 35.872 170.104 36.448 170.104C37.088 170.104 37.5733 169.981 37.904 169.736C38.2453 169.491 38.416 169.128 38.416 168.648C38.416 168.243 38.2827 167.928 38.016 167.704C37.76 167.469 37.344 167.309 36.768 167.224L36.016 167.112C35.6747 167.059 35.3387 166.984 35.008 166.888C34.6773 166.792 34.3733 166.653 34.096 166.472C33.8293 166.291 33.6107 166.051 33.44 165.752C33.28 165.453 33.2 165.08 33.2 164.632C33.2 164.216 33.2747 163.848 33.424 163.528C33.584 163.208 33.8027 162.941 34.08 162.728C34.368 162.515 34.704 162.355 35.088 162.248C35.472 162.131 35.888 162.072 36.336 162.072C37.0933 162.072 37.7227 162.2 38.224 162.456C38.736 162.701 39.1627 163.027 39.504 163.432L38.688 164.2C38.4533 163.923 38.1387 163.683 37.744 163.48C37.3493 163.267 36.8693 163.16 36.304 163.16C35.7067 163.16 35.248 163.283 34.928 163.528C34.608 163.773 34.448 164.115 34.448 164.552C34.448 165.021 34.6027 165.352 34.912 165.544C35.2213 165.736 35.648 165.875 36.192 165.96L36.944 166.072C37.3387 166.136 37.7013 166.221 38.032 166.328C38.3627 166.435 38.6453 166.584 38.88 166.776C39.1253 166.968 39.3173 167.208 39.456 167.496C39.5947 167.773 39.664 168.115 39.664 168.52C39.664 169.352 39.3653 170.008 38.768 170.488C38.1813 170.957 37.376 171.192 36.352 171.192ZM43.5016 169.4C43.0216 169.4 42.6696 169.283 42.4456 169.048C42.2216 168.813 42.1096 168.504 42.1096 168.12V167.432H43.3896V168.296H46.1576V169.4H43.5016ZM43.5016 165.288C43.0216 165.288 42.6696 165.171 42.4456 164.936C42.2216 164.701 42.1096 164.392 42.1096 164.008V163.32H43.3896V164.184H46.1576V165.288H43.5016ZM52.6155 171.192C51.4848 171.192 50.5942 170.888 49.9435 170.28C49.2928 169.661 48.9675 168.819 48.9675 167.752V162.264H50.2475V167.624C50.2475 168.424 50.4555 169.037 50.8715 169.464C51.2982 169.88 51.8795 170.088 52.6155 170.088C53.3515 170.088 53.9275 169.88 54.3435 169.464C54.7702 169.037 54.9835 168.424 54.9835 167.624V162.264H56.2635V167.752C56.2635 168.819 55.9382 169.661 55.2875 170.28C54.6368 170.888 53.7462 171.192 52.6155 171.192ZM55.2996 173.832H54.2436V172.808H55.6036C55.9236 172.808 56.1583 172.893 56.3076 173.064C56.4463 173.235 56.5156 173.464 56.5156 173.752V176.504H55.2996V173.832ZM61.2629 171C60.8149 171 60.4735 170.877 60.2389 170.632C60.0149 170.387 59.9029 170.061 59.9029 169.656V162.264H61.1829V169.88H62.5269V171H61.2629ZM68.2874 171.192C67.1567 171.192 66.266 170.888 65.6154 170.28C64.9647 169.661 64.6394 168.819 64.6394 167.752V162.264H65.9194V167.624C65.9194 168.424 66.1274 169.037 66.5434 169.464C66.97 169.88 67.5514 170.088 68.2874 170.088C69.0234 170.088 69.5994 169.88 70.0154 169.464C70.442 169.037 70.6554 168.424 70.6554 167.624V162.264H71.9354V167.752C71.9354 168.819 71.61 169.661 70.9594 170.28C70.3087 170.888 69.418 171.192 68.2874 171.192ZM78.0325 171.192C77.5205 171.192 77.0405 171.117 76.5925 170.968C76.1445 170.819 75.7552 170.605 75.4245 170.328C75.0938 170.04 74.8325 169.704 74.6405 169.32C74.4485 168.925 74.3525 168.488 74.3525 168.008V167.192C74.3525 166.872 74.4165 166.627 74.5445 166.456C74.6725 166.275 74.9445 166.184 75.3605 166.184H77.0565V167.288H75.6485V167.944C75.6485 168.317 75.7072 168.643 75.8245 168.92C75.9525 169.197 76.1232 169.427 76.3365 169.608C76.5498 169.779 76.8058 169.907 77.1045 169.992C77.4138 170.077 77.7445 170.12 78.0965 170.12C78.8965 170.12 79.5205 169.875 79.9685 169.384C80.4165 168.893 80.6405 168.205 80.6405 167.32V166.008C80.6405 165.112 80.3952 164.419 79.9045 163.928C79.4245 163.427 78.7525 163.176 77.8885 163.176C77.2272 163.176 76.6565 163.309 76.1765 163.576C75.6965 163.843 75.3178 164.2 75.0405 164.648L74.2085 163.912C74.5072 163.389 74.9605 162.952 75.5685 162.6C76.1872 162.248 76.9818 162.072 77.9525 162.072C79.2432 162.072 80.2405 162.477 80.9445 163.288C81.6592 164.088 82.0165 165.203 82.0165 166.632C82.0165 167.325 81.9312 167.955 81.7605 168.52C81.5898 169.085 81.3338 169.565 80.9925 169.96C80.6618 170.355 80.2458 170.659 79.7445 170.872C79.2538 171.085 78.6832 171.192 78.0325 171.192ZM87.5708 171.192C86.7708 171.192 86.0881 171.048 85.5228 170.76C84.9574 170.472 84.4828 170.067 84.0988 169.544L85.0108 168.808C85.3414 169.256 85.7201 169.587 86.1468 169.8C86.5841 170.003 87.0908 170.104 87.6668 170.104C88.3068 170.104 88.7921 169.981 89.1228 169.736C89.4641 169.491 89.6348 169.128 89.6348 168.648C89.6348 168.243 89.5014 167.928 89.2348 167.704C88.9788 167.469 88.5628 167.309 87.9868 167.224L87.2348 167.112C86.8934 167.059 86.5574 166.984 86.2268 166.888C85.8961 166.792 85.5921 166.653 85.3148 166.472C85.0481 166.291 84.8294 166.051 84.6588 165.752C84.4988 165.453 84.4188 165.08 84.4188 164.632C84.4188 164.216 84.4934 163.848 84.6428 163.528C84.8028 163.208 85.0214 162.941 85.2988 162.728C85.5868 162.515 85.9228 162.355 86.3068 162.248C86.6908 162.131 87.1068 162.072 87.5548 162.072C88.3121 162.072 88.9414 162.2 89.4428 162.456C89.9548 162.701 90.3814 163.027 90.7228 163.432L89.9068 164.2C89.6721 163.923 89.3574 163.683 88.9628 163.48C88.5681 163.267 88.0881 163.16 87.5228 163.16C86.9254 163.16 86.4668 163.283 86.1468 163.528C85.8268 163.773 85.6668 164.115 85.6668 164.552C85.6668 165.021 85.8214 165.352 86.1308 165.544C86.4401 165.736 86.8668 165.875 87.4108 165.96L88.1628 166.072C88.5574 166.136 88.9201 166.221 89.2508 166.328C89.5814 166.435 89.8641 166.584 90.0988 166.776C90.3441 166.968 90.5361 167.208 90.6748 167.496C90.8134 167.773 90.8828 168.115 90.8828 168.52C90.8828 169.352 90.5841 170.008 89.9868 170.488C89.4001 170.957 88.5948 171.192 87.5708 171.192ZM88.565 159.544C88.565 159.16 88.677 158.856 88.901 158.632C89.125 158.397 89.477 158.28 89.957 158.28H93.125V159.368H89.845V160.552H88.565V159.544ZM97.3883 171C96.9296 171 96.5829 170.877 96.3483 170.632C96.1243 170.387 96.0123 170.061 96.0123 169.656V160.888L94.0282 160.024V159.8C94.0282 159.373 94.0976 158.989 94.2363 158.648C94.3856 158.307 94.5883 158.019 94.8443 157.784C95.1003 157.539 95.4043 157.352 95.7563 157.224C96.1189 157.096 96.5189 157.032 96.9563 157.032C97.5856 157.032 98.1029 157.128 98.5083 157.32C98.9136 157.512 99.2549 157.768 99.5323 158.088L98.7163 158.856C98.5456 158.653 98.3216 158.477 98.0443 158.328C97.7776 158.179 97.4416 158.104 97.0363 158.104C96.5563 158.104 96.1349 158.211 95.7723 158.424C95.4203 158.637 95.2229 158.979 95.1803 159.448L96.6523 160.056C96.8869 160.152 97.0523 160.275 97.1483 160.424C97.2443 160.563 97.2923 160.776 97.2923 161.064V169.88H98.6363V171H97.3883ZM100.829 162.264H102.109V163.688H102.189C102.274 163.485 102.381 163.288 102.509 163.096C102.647 162.893 102.818 162.717 103.021 162.568C103.234 162.419 103.479 162.301 103.757 162.216C104.045 162.12 104.375 162.072 104.749 162.072C105.677 162.072 106.402 162.365 106.925 162.952C107.458 163.528 107.725 164.355 107.725 165.432V171H106.445V165.592C106.445 163.971 105.741 163.16 104.333 163.16C104.055 163.16 103.783 163.197 103.517 163.272C103.25 163.347 103.01 163.459 102.797 163.608C102.594 163.757 102.429 163.944 102.301 164.168C102.173 164.392 102.109 164.653 102.109 164.952V171H100.829V162.264ZM113.602 171.192C112.802 171.192 112.119 171.048 111.554 170.76C110.989 170.472 110.514 170.067 110.13 169.544L111.042 168.808C111.373 169.256 111.751 169.587 112.178 169.8C112.615 170.003 113.122 170.104 113.698 170.104C114.338 170.104 114.823 169.981 115.154 169.736C115.495 169.491 115.666 169.128 115.666 168.648C115.666 168.243 115.533 167.928 115.266 167.704C115.01 167.469 114.594 167.309 114.018 167.224L113.266 167.112C112.925 167.059 112.589 166.984 112.258 166.888C111.927 166.792 111.623 166.653 111.346 166.472C111.079 166.291 110.861 166.051 110.69 165.752C110.53 165.453 110.45 165.08 110.45 164.632C110.45 164.216 110.525 163.848 110.674 163.528C110.834 163.208 111.053 162.941 111.33 162.728C111.618 162.515 111.954 162.355 112.338 162.248C112.722 162.131 113.138 162.072 113.586 162.072C114.343 162.072 114.973 162.2 115.474 162.456C115.986 162.701 116.413 163.027 116.754 163.432L115.938 164.2C115.703 163.923 115.389 163.683 114.994 163.48C114.599 163.267 114.119 163.16 113.554 163.16C112.957 163.16 112.498 163.283 112.178 163.528C111.858 163.773 111.698 164.115 111.698 164.552C111.698 165.021 111.853 165.352 112.162 165.544C112.471 165.736 112.898 165.875 113.442 165.96L114.194 166.072C114.589 166.136 114.951 166.221 115.282 166.328C115.613 166.435 115.895 166.584 116.13 166.776C116.375 166.968 116.567 167.208 116.706 167.496C116.845 167.773 116.914 168.115 116.914 168.52C116.914 169.352 116.615 170.008 116.018 170.488C115.431 170.957 114.626 171.192 113.602 171.192Z" fill="#1C1B1B"/>
<path d="M21.094 229.216C20.494 229.216 19.948 229.144 19.456 229C18.976 228.856 18.562 228.64 18.214 228.352C17.866 228.064 17.596 227.698 17.404 227.254C17.212 226.81 17.116 226.288 17.116 225.688C17.116 225.004 17.206 224.464 17.386 224.068C17.578 223.66 17.794 223.294 18.034 222.97C18.262 222.67 18.448 222.364 18.592 222.052C18.736 221.74 18.808 221.422 18.808 221.098V220.756H16.99V219.118H19.042C19.582 219.118 19.996 219.25 20.284 219.514C20.584 219.766 20.734 220.114 20.734 220.558V220.684C20.734 221.08 20.662 221.464 20.518 221.836C20.386 222.196 20.182 222.616 19.906 223.096C19.69 223.48 19.516 223.834 19.384 224.158C19.264 224.47 19.204 224.836 19.204 225.256V225.778C19.204 226.378 19.366 226.834 19.69 227.146C20.026 227.458 20.482 227.614 21.058 227.614C21.634 227.614 22.084 227.458 22.408 227.146C22.744 226.834 22.912 226.378 22.912 225.778V224.392C22.912 223.84 22.816 223.414 22.624 223.114C22.444 222.814 22.144 222.664 21.724 222.664H21.382V221.17H21.814C22.174 221.17 22.468 221.068 22.696 220.864C22.924 220.648 23.038 220.3 23.038 219.82V218.758H24.964V219.676C24.964 220.216 24.802 220.672 24.478 221.044C24.166 221.404 23.716 221.632 23.128 221.728V221.836C23.74 222.028 24.202 222.406 24.514 222.97C24.838 223.522 25 224.248 25 225.148C25 226.408 24.676 227.404 24.028 228.136C23.392 228.856 22.414 229.216 21.094 229.216ZM17.3568 215.806H20.5428V214.384H22.1628V215.95H23.4948V214.384H25.1148V217.354H17.3568V215.806ZM23.5548 210.64H25.2648V213.394H23.5548V210.64ZM31.6205 229.216C31.0205 229.216 30.4565 229.132 29.9285 228.964C29.4125 228.784 28.9625 228.544 28.5785 228.244C28.2065 227.932 27.9125 227.56 27.6965 227.128C27.4805 226.696 27.3725 226.216 27.3725 225.688V224.788C27.3725 224.368 27.4685 224.044 27.6605 223.816C27.8525 223.576 28.2005 223.456 28.7045 223.456H30.7205V225.004H29.2265V225.544C29.2265 226.264 29.4485 226.792 29.8925 227.128C30.3485 227.452 30.9545 227.614 31.7105 227.614C32.4905 227.614 33.0905 227.374 33.5105 226.894C33.9425 226.414 34.1585 225.736 34.1585 224.86V223.312C34.1585 222.424 33.9185 221.734 33.4385 221.242C32.9705 220.75 32.3045 220.504 31.4405 220.504C30.7205 220.504 30.1025 220.654 29.5865 220.954C29.0825 221.254 28.6985 221.614 28.4345 222.034L27.2105 220.936C27.5585 220.36 28.0925 219.88 28.8125 219.496C29.5325 219.1 30.4385 218.902 31.5305 218.902C33.0185 218.902 34.1765 219.358 35.0045 220.27C35.8325 221.17 36.2465 222.43 36.2465 224.05C36.2465 224.842 36.1445 225.562 35.9405 226.21C35.7365 226.846 35.4365 227.386 35.0405 227.83C34.6445 228.274 34.1585 228.616 33.5825 228.856C33.0065 229.096 32.3525 229.216 31.6205 229.216ZM41.141 229.216C40.589 229.216 40.127 229.102 39.755 228.874C39.383 228.634 39.083 228.298 38.855 227.866C38.627 227.422 38.465 226.882 38.369 226.246C38.273 225.61 38.225 224.89 38.225 224.086C38.225 222.478 38.543 221.248 39.179 220.396C39.827 219.544 40.745 219.118 41.933 219.118H42.455V220.756H42.095C40.907 220.756 40.313 221.56 40.313 223.168V225.22C40.313 225.58 40.325 225.91 40.349 226.21C40.385 226.498 40.445 226.744 40.529 226.948C40.625 227.152 40.751 227.314 40.907 227.434C41.063 227.542 41.261 227.596 41.501 227.596C42.197 227.596 42.545 227.092 42.545 226.084V224.374H44.291V226.084C44.291 226.588 44.393 226.966 44.597 227.218C44.801 227.47 45.071 227.596 45.407 227.596C45.731 227.596 45.983 227.488 46.163 227.272C46.343 227.044 46.433 226.726 46.433 226.318V219.118H48.395V226.516C48.395 227.344 48.179 228.004 47.747 228.496C47.315 228.976 46.715 229.216 45.947 229.216C45.191 229.216 44.609 229.03 44.201 228.658C43.793 228.274 43.553 227.806 43.481 227.254H43.373C43.301 227.806 43.073 228.274 42.689 228.658C42.305 229.03 41.789 229.216 41.141 229.216ZM45.8488 235.354C44.9608 235.354 44.3128 235.144 43.9048 234.724C43.4848 234.316 43.2748 233.788 43.2748 233.14V232.348H42.1048V230.962H43.5628C44.0188 230.962 44.3488 231.058 44.5528 231.25C44.7568 231.442 44.8588 231.7 44.8588 232.024V232.798C44.8588 233.182 44.9368 233.476 45.0928 233.68C45.2488 233.884 45.5008 233.986 45.8488 233.986C46.1968 233.986 46.4488 233.884 46.6048 233.68C46.7608 233.476 46.8388 233.182 46.8388 232.798V230.962H48.5488V232.834C48.5488 233.566 48.3328 234.166 47.9008 234.634C47.4568 235.114 46.7728 235.354 45.8488 235.354ZM45.4588 215.806H46.7368V215.176C46.7368 214.912 46.6828 214.726 46.5748 214.618C46.4548 214.498 46.2448 214.438 45.9448 214.438H45.4588V213.034H46.6648C47.2408 213.034 47.6788 213.16 47.9788 213.412C48.2668 213.652 48.4108 213.982 48.4108 214.402C48.4108 214.654 48.3448 214.906 48.2128 215.158C48.0688 215.398 47.8588 215.584 47.5828 215.716V215.806H50.8228V217.21H45.4588V215.806ZM55.4952 229.216C54.0792 229.216 52.9872 228.772 52.2192 227.884C51.4632 226.984 51.0852 225.694 51.0852 224.014C51.0852 222.37 51.3372 221.11 51.8412 220.234C52.3452 219.346 53.1192 218.902 54.1632 218.902C54.6792 218.902 55.1112 219.052 55.4592 219.352C55.8072 219.64 56.0292 220.042 56.1252 220.558H56.2332C56.3412 220.042 56.5932 219.64 56.9892 219.352C57.3852 219.052 57.8712 218.902 58.4472 218.902C59.1792 218.902 59.7552 219.142 60.1752 219.622C60.5952 220.09 60.8052 220.756 60.8052 221.62V229H58.8432V221.782C58.8432 221.362 58.7592 221.05 58.5912 220.846C58.4232 220.642 58.1832 220.54 57.8712 220.54C57.4872 220.54 57.2232 220.684 57.0792 220.972C56.9352 221.248 56.8392 221.566 56.7912 221.926H55.5672C55.5432 221.746 55.5072 221.572 55.4592 221.404C55.4232 221.236 55.3632 221.092 55.2792 220.972C55.1952 220.84 55.0872 220.738 54.9552 220.666C54.8352 220.582 54.6792 220.54 54.4872 220.54C53.9952 220.54 53.6532 220.78 53.4612 221.26C53.2692 221.728 53.1732 222.352 53.1732 223.132V224.788C53.1732 225.22 53.2212 225.61 53.3172 225.958C53.4132 226.306 53.5632 226.606 53.7672 226.858C53.9832 227.098 54.2532 227.284 54.5772 227.416C54.9132 227.548 55.3212 227.614 55.8012 227.614C55.9212 227.614 56.0472 227.608 56.1792 227.596C56.3112 227.584 56.4432 227.566 56.5752 227.542L56.7912 229.09C56.5992 229.138 56.3832 229.168 56.1432 229.18C55.9152 229.204 55.6992 229.216 55.4952 229.216ZM53.194 215.806H60.952V217.354H53.194V215.806ZM67.6583 229.216C66.2903 229.216 65.2283 228.76 64.4723 227.848C63.7163 226.924 63.3383 225.658 63.3383 224.05C63.3383 223.27 63.4463 222.562 63.6623 221.926C63.8903 221.29 64.2083 220.75 64.6163 220.306C65.0363 219.85 65.5403 219.502 66.1283 219.262C66.7163 219.022 67.3763 218.902 68.1083 218.902C68.7803 218.902 69.3923 219.004 69.9443 219.208C70.4963 219.4 70.9643 219.676 71.3483 220.036C71.7443 220.396 72.0443 220.834 72.2483 221.35C72.4643 221.854 72.5723 222.418 72.5723 223.042V229H70.6103V223.204C70.6103 222.352 70.3823 221.692 69.9263 221.224C69.4703 220.744 68.8463 220.504 68.0543 220.504C67.2263 220.504 66.5783 220.762 66.1103 221.278C65.6543 221.794 65.4263 222.496 65.4263 223.384V224.698C65.4263 225.646 65.6303 226.372 66.0383 226.876C66.4583 227.368 67.0943 227.614 67.9463 227.614C68.2103 227.614 68.4563 227.59 68.6843 227.542L68.9183 229.09C68.7383 229.138 68.5223 229.168 68.2703 229.18C68.0303 229.204 67.8263 229.216 67.6583 229.216ZM79.3593 229.216C77.9433 229.216 76.8513 228.772 76.0833 227.884C75.3273 226.984 74.9493 225.694 74.9493 224.014C74.9493 222.37 75.2013 221.11 75.7053 220.234C76.2093 219.346 76.9833 218.902 78.0273 218.902C78.5433 218.902 78.9753 219.052 79.3232 219.352C79.6713 219.64 79.8933 220.042 79.9893 220.558H80.0973C80.2053 220.042 80.4573 219.64 80.8533 219.352C81.2493 219.052 81.7353 218.902 82.3113 218.902C83.0433 218.902 83.6193 219.142 84.0393 219.622C84.4593 220.09 84.6693 220.756 84.6693 221.62V229H82.7073V221.782C82.7073 221.362 82.6233 221.05 82.4553 220.846C82.2873 220.642 82.0473 220.54 81.7353 220.54C81.3513 220.54 81.0873 220.684 80.9433 220.972C80.7993 221.248 80.7033 221.566 80.6553 221.926H79.4313C79.4073 221.746 79.3713 221.572 79.3232 221.404C79.2873 221.236 79.2273 221.092 79.1433 220.972C79.0593 220.84 78.9513 220.738 78.8193 220.666C78.6993 220.582 78.5433 220.54 78.3513 220.54C77.8593 220.54 77.5173 220.78 77.3253 221.26C77.1333 221.728 77.0373 222.352 77.0373 223.132V224.788C77.0373 225.22 77.0853 225.61 77.1813 225.958C77.2773 226.306 77.4273 226.606 77.6313 226.858C77.8473 227.098 78.1173 227.284 78.4413 227.416C78.7773 227.548 79.1853 227.614 79.6653 227.614C79.7853 227.614 79.9113 227.608 80.0433 227.596C80.1753 227.584 80.3073 227.566 80.4393 227.542L80.6553 229.09C80.4633 229.138 80.2473 229.168 80.0073 229.18C79.7793 229.204 79.5633 229.216 79.3593 229.216ZM82.926 213.862H84.762V217.354H82.926V213.862ZM91.5584 229.216C90.9584 229.216 90.3944 229.132 89.8664 228.964C89.3504 228.784 88.9004 228.544 88.5164 228.244C88.1444 227.932 87.8504 227.56 87.6344 227.128C87.4184 226.696 87.3104 226.216 87.3104 225.688V224.788C87.3104 224.368 87.4064 224.044 87.5984 223.816C87.7904 223.576 88.1384 223.456 88.6424 223.456H90.6584V225.004H89.1644V225.544C89.1644 226.264 89.3864 226.792 89.8304 227.128C90.2864 227.452 90.8924 227.614 91.6484 227.614C92.4284 227.614 93.0284 227.374 93.4484 226.894C93.8804 226.414 94.0964 225.736 94.0964 224.86V223.312C94.0964 222.424 93.8564 221.734 93.3764 221.242C92.9084 220.75 92.2424 220.504 91.3784 220.504C90.6584 220.504 90.0404 220.654 89.5244 220.954C89.0204 221.254 88.6364 221.614 88.3724 222.034L87.1484 220.936C87.4964 220.36 88.0304 219.88 88.7504 219.496C89.4704 219.1 90.3764 218.902 91.4684 218.902C92.9564 218.902 94.1144 219.358 94.9424 220.27C95.7704 221.17 96.1844 222.43 96.1844 224.05C96.1844 224.842 96.0824 225.562 95.8784 226.21C95.6744 226.846 95.3744 227.386 94.9784 227.83C94.5824 228.274 94.0964 228.616 93.5204 228.856C92.9444 229.096 92.2904 229.216 91.5584 229.216Z" fill="#1C1B1B"/>
<path d="M104.583 223.168L103.215 222.214L105.123 219.838L102.261 219.01L102.783 217.444L105.537 218.524L105.411 215.554H107.121L106.995 218.524L109.749 217.444L110.289 219.01L107.409 219.838L109.317 222.214L107.949 223.168L106.257 220.648L104.583 223.168Z" fill="#BA1A1A"/>
<rect x="16.5" y="250.5" width="287" height="39" rx="3.5" stroke="#1C1B1B"/>
<path d="M36.352 275.192C35.552 275.192 34.8693 275.048 34.304 274.76C33.7387 274.472 33.264 274.067 32.88 273.544L33.792 272.808C34.1227 273.256 34.5013 273.587 34.928 273.8C35.3653 274.003 35.872 274.104 36.448 274.104C37.088 274.104 37.5733 273.981 37.904 273.736C38.2453 273.491 38.416 273.128 38.416 272.648C38.416 272.243 38.2827 271.928 38.016 271.704C37.76 271.469 37.344 271.309 36.768 271.224L36.016 271.112C35.6747 271.059 35.3387 270.984 35.008 270.888C34.6773 270.792 34.3733 270.653 34.096 270.472C33.8293 270.291 33.6107 270.051 33.44 269.752C33.28 269.453 33.2 269.08 33.2 268.632C33.2 268.216 33.2747 267.848 33.424 267.528C33.584 267.208 33.8027 266.941 34.08 266.728C34.368 266.515 34.704 266.355 35.088 266.248C35.472 266.131 35.888 266.072 36.336 266.072C37.0933 266.072 37.7227 266.2 38.224 266.456C38.736 266.701 39.1627 267.027 39.504 267.432L38.688 268.2C38.4533 267.923 38.1387 267.683 37.744 267.48C37.3493 267.267 36.8693 267.16 36.304 267.16C35.7067 267.16 35.248 267.283 34.928 267.528C34.608 267.773 34.448 268.115 34.448 268.552C34.448 269.021 34.6027 269.352 34.912 269.544C35.2213 269.736 35.648 269.875 36.192 269.96L36.944 270.072C37.3387 270.136 37.7013 270.221 38.032 270.328C38.3627 270.435 38.6453 270.584 38.88 270.776C39.1253 270.968 39.3173 271.208 39.456 271.496C39.5947 271.773 39.664 272.115 39.664 272.52C39.664 273.352 39.3653 274.008 38.768 274.488C38.1813 274.957 37.376 275.192 36.352 275.192ZM43.5016 273.4C43.0216 273.4 42.6696 273.283 42.4456 273.048C42.2216 272.813 42.1096 272.504 42.1096 272.12V271.432H43.3896V272.296H46.1576V273.4H43.5016ZM43.5016 269.288C43.0216 269.288 42.6696 269.171 42.4456 268.936C42.2216 268.701 42.1096 268.392 42.1096 268.008V267.32H43.3896V268.184H46.1576V269.288H43.5016ZM52.6155 275.192C51.4848 275.192 50.5942 274.888 49.9435 274.28C49.2928 273.661 48.9675 272.819 48.9675 271.752V266.264H50.2475V271.624C50.2475 272.424 50.4555 273.037 50.8715 273.464C51.2982 273.88 51.8795 274.088 52.6155 274.088C53.3515 274.088 53.9275 273.88 54.3435 273.464C54.7702 273.037 54.9835 272.424 54.9835 271.624V266.264H56.2635V271.752C56.2635 272.819 55.9382 273.661 55.2875 274.28C54.6368 274.888 53.7462 275.192 52.6155 275.192ZM55.2996 277.832H54.2436V276.808H55.6036C55.9236 276.808 56.1583 276.893 56.3076 277.064C56.4463 277.235 56.5156 277.464 56.5156 277.752V280.504H55.2996V277.832ZM62.5749 275.192C61.5722 275.192 60.7615 274.936 60.1429 274.424C59.5349 273.912 59.2309 273.133 59.2309 272.088C59.2309 271.779 59.2522 271.507 59.2949 271.272C59.3482 271.027 59.4122 270.808 59.4869 270.616C59.5722 270.413 59.6682 270.227 59.7749 270.056C59.8815 269.885 59.9989 269.72 60.1269 269.56C60.3509 269.261 60.5375 268.973 60.6869 268.696C60.8362 268.419 60.9109 268.125 60.9109 267.816V267.384H59.0869V266.264H60.9589C61.3535 266.264 61.6522 266.371 61.8549 266.584C62.0682 266.787 62.1749 267.059 62.1749 267.4V267.544C62.1749 267.928 62.1002 268.285 61.9509 268.616C61.8122 268.936 61.6042 269.315 61.3269 269.752C61.0815 270.125 60.9002 270.467 60.7829 270.776C60.6655 271.075 60.6069 271.405 60.6069 271.768V272.264C60.6069 272.893 60.7829 273.357 61.1349 273.656C61.4869 273.944 61.9562 274.088 62.5429 274.088C63.1509 274.088 63.6202 273.944 63.9509 273.656C64.2815 273.357 64.4469 272.936 64.4469 272.392V271C64.4469 270.456 64.3402 270.04 64.1269 269.752C63.9135 269.453 63.6202 269.304 63.2469 269.304H62.7989V268.28H63.2789C63.6522 268.28 63.9455 268.173 64.1589 267.96C64.3829 267.736 64.4949 267.379 64.4949 266.888V266.008H65.7749V266.84C65.7749 267.107 65.7269 267.347 65.6309 267.56C65.5349 267.763 65.4122 267.939 65.2629 268.088C65.1135 268.237 64.9375 268.36 64.7349 268.456C64.5429 268.541 64.3455 268.6 64.1429 268.632V268.712C64.7082 268.872 65.1295 269.219 65.4069 269.752C65.6842 270.285 65.8229 270.92 65.8229 271.656C65.8229 272.755 65.5402 273.619 64.9749 274.248C64.4095 274.877 63.6095 275.192 62.5749 275.192ZM59.5032 263.448H62.5432V262.28H63.6793V263.512H64.8312V262.28H66.0312V264.552H59.5032V263.448ZM65.0972 258.888H66.2812V261.272H65.0972V258.888ZM72.2825 275.192C71.7705 275.192 71.2905 275.117 70.8425 274.968C70.3945 274.819 70.0052 274.605 69.6745 274.328C69.3438 274.04 69.0825 273.704 68.8905 273.32C68.6985 272.925 68.6025 272.488 68.6025 272.008V271.192C68.6025 270.872 68.6665 270.627 68.7945 270.456C68.9225 270.275 69.1945 270.184 69.6105 270.184H71.3065V271.288H69.8985V271.944C69.8985 272.317 69.9572 272.643 70.0745 272.92C70.2025 273.197 70.3732 273.427 70.5865 273.608C70.7998 273.779 71.0558 273.907 71.3545 273.992C71.6638 274.077 71.9945 274.12 72.3465 274.12C73.1465 274.12 73.7705 273.875 74.2185 273.384C74.6665 272.893 74.8905 272.205 74.8905 271.32V270.008C74.8905 269.112 74.6452 268.419 74.1545 267.928C73.6745 267.427 73.0025 267.176 72.1385 267.176C71.4772 267.176 70.9065 267.309 70.4265 267.576C69.9465 267.843 69.5678 268.2 69.2905 268.648L68.4585 267.912C68.7572 267.389 69.2105 266.952 69.8185 266.6C70.4372 266.248 71.2318 266.072 72.2025 266.072C73.4932 266.072 74.4905 266.477 75.1945 267.288C75.9092 268.088 76.2665 269.203 76.2665 270.632C76.2665 271.325 76.1812 271.955 76.0105 272.52C75.8398 273.085 75.5838 273.565 75.2425 273.96C74.9118 274.355 74.4958 274.659 73.9945 274.872C73.5038 275.085 72.9332 275.192 72.2825 275.192ZM82.604 270.824V269.448H86.78V270.824H82.604ZM96.4119 275.192C95.4839 275.192 94.7585 274.899 94.2359 274.312C93.7132 273.725 93.4519 272.899 93.4519 271.832V266.264H94.7319V271.672C94.7319 273.293 95.4252 274.104 96.8119 274.104C97.0785 274.104 97.3452 274.067 97.6119 273.992C97.8785 273.917 98.1132 273.805 98.3159 273.656C98.5185 273.507 98.6839 273.32 98.8119 273.096C98.9399 272.872 99.0039 272.611 99.0039 272.312V266.264H100.284V273.88H101.308V275H100.364C99.9372 275 99.6225 274.872 99.4199 274.616C99.2279 274.36 99.1159 274.035 99.0839 273.64H99.0199C98.8492 274.131 98.5292 274.515 98.0599 274.792C97.6012 275.059 97.0519 275.192 96.4119 275.192ZM106.996 269C106.996 267.773 106.361 267.16 105.092 267.16C104.58 267.16 104.159 267.272 103.828 267.496C103.508 267.72 103.236 268.019 103.012 268.392L102.228 267.704C102.473 267.235 102.831 266.845 103.3 266.536C103.78 266.227 104.404 266.072 105.172 266.072C106.175 266.072 106.943 266.317 107.476 266.808C108.009 267.299 108.276 267.992 108.276 268.888V275H106.996V269ZM115.061 275.192C114.687 275.192 114.362 275.144 114.085 275.048C113.807 274.963 113.567 274.845 113.365 274.696C113.162 274.547 112.991 274.376 112.853 274.184C112.725 273.992 112.618 273.789 112.533 273.576H112.453V275H111.173V266.264H112.453V272.312C112.453 272.611 112.517 272.872 112.645 273.096C112.773 273.32 112.938 273.507 113.141 273.656C113.354 273.805 113.589 273.917 113.845 273.992C114.111 274.067 114.383 274.104 114.661 274.104C115.365 274.104 115.893 273.901 116.245 273.496C116.607 273.08 116.789 272.472 116.789 271.672V266.264H118.069V271.832C118.069 272.909 117.802 273.741 117.269 274.328C116.735 274.904 115.999 275.192 115.061 275.192ZM123.514 275.16C122.628 275.16 121.924 274.941 121.402 274.504C120.879 274.067 120.618 273.432 120.618 272.6C120.618 271.789 120.874 271.165 121.386 270.728C121.908 270.291 122.618 270.072 123.514 270.072H126.298V269.24C126.298 267.864 125.546 267.176 124.042 267.176C123.402 267.176 122.863 267.309 122.426 267.576C121.999 267.832 121.652 268.189 121.386 268.648L120.57 267.928C120.847 267.405 121.274 266.968 121.85 266.616C122.426 266.253 123.178 266.072 124.106 266.072C125.023 266.072 125.764 266.264 126.33 266.648C126.372 266.093 126.671 265.816 127.226 265.816H129.354V267H126.778C127.311 267.533 127.578 268.259 127.578 269.176V275H126.298V270.984H123.802C123.226 270.984 122.778 271.107 122.458 271.352C122.138 271.597 121.978 271.944 121.978 272.392V272.76C121.978 273.24 122.122 273.608 122.41 273.864C122.708 274.109 123.108 274.232 123.61 274.232C123.759 274.232 123.882 274.227 123.978 274.216C124.084 274.205 124.17 274.195 124.234 274.184L124.346 275.064C124.282 275.096 124.159 275.117 123.978 275.128C123.807 275.149 123.652 275.16 123.514 275.16ZM131.8 270.008L130.44 269.432C130.472 268.941 130.59 268.493 130.792 268.088C131.006 267.672 131.283 267.315 131.624 267.016C131.966 266.717 132.36 266.488 132.808 266.328C133.267 266.157 133.763 266.072 134.296 266.072C135.544 266.072 136.499 266.387 137.16 267.016C137.822 267.635 138.152 268.477 138.152 269.544V275H136.872V269.704C136.872 268.872 136.638 268.243 136.168 267.816C135.71 267.389 135.102 267.176 134.344 267.176C134.014 267.176 133.699 267.219 133.4 267.304C133.112 267.379 132.851 267.491 132.616 267.64C132.382 267.779 132.179 267.955 132.008 268.168C131.838 268.371 131.715 268.6 131.64 268.856L132.44 269.176C132.664 269.261 132.824 269.373 132.92 269.512C133.027 269.64 133.08 269.821 133.08 270.056V275H131.8V270.008ZM137.19 277.832H136.134V276.808H137.494C137.814 276.808 138.049 276.893 138.198 277.064C138.337 277.235 138.406 277.464 138.406 277.752V280.504H137.19V277.832ZM143.858 275.16C142.972 275.16 142.268 274.941 141.746 274.504C141.223 274.067 140.962 273.432 140.962 272.6C140.962 271.789 141.218 271.165 141.73 270.728C142.252 270.291 142.962 270.072 143.858 270.072H146.642V269.24C146.642 267.864 145.89 267.176 144.386 267.176C143.746 267.176 143.207 267.309 142.77 267.576C142.343 267.832 141.996 268.189 141.73 268.648L140.914 267.928C141.191 267.405 141.618 266.968 142.194 266.616C142.77 266.253 143.522 266.072 144.45 266.072C145.559 266.072 146.412 266.349 147.01 266.904C147.618 267.448 147.922 268.205 147.922 269.176V275H146.642V270.984H144.146C143.57 270.984 143.122 271.107 142.802 271.352C142.482 271.597 142.322 271.944 142.322 272.392V272.76C142.322 273.24 142.466 273.608 142.754 273.864C143.052 274.109 143.452 274.232 143.954 274.232C144.103 274.232 144.226 274.227 144.322 274.216C144.428 274.205 144.514 274.195 144.578 274.184L144.69 275.064C144.626 275.096 144.503 275.117 144.322 275.128C144.151 275.149 143.996 275.16 143.858 275.16Z" fill="#1C1B1B"/>
<path d="M21.094 333.216C20.494 333.216 19.948 333.144 19.456 333C18.976 332.856 18.562 332.64 18.214 332.352C17.866 332.064 17.596 331.698 17.404 331.254C17.212 330.81 17.116 330.288 17.116 329.688C17.116 329.004 17.206 328.464 17.386 328.068C17.578 327.66 17.794 327.294 18.034 326.97C18.262 326.67 18.448 326.364 18.592 326.052C18.736 325.74 18.808 325.422 18.808 325.098V324.756H16.99V323.118H19.042C19.582 323.118 19.996 323.25 20.284 323.514C20.584 323.766 20.734 324.114 20.734 324.558V324.684C20.734 325.08 20.662 325.464 20.518 325.836C20.386 326.196 20.182 326.616 19.906 327.096C19.69 327.48 19.516 327.834 19.384 328.158C19.264 328.47 19.204 328.836 19.204 329.256V329.778C19.204 330.378 19.366 330.834 19.69 331.146C20.026 331.458 20.482 331.614 21.058 331.614C21.634 331.614 22.084 331.458 22.408 331.146C22.744 330.834 22.912 330.378 22.912 329.778V328.392C22.912 327.84 22.816 327.414 22.624 327.114C22.444 326.814 22.144 326.664 21.724 326.664H21.382V325.17H21.814C22.174 325.17 22.468 325.068 22.696 324.864C22.924 324.648 23.038 324.3 23.038 323.82V322.758H24.964V323.676C24.964 324.216 24.802 324.672 24.478 325.044C24.166 325.404 23.716 325.632 23.128 325.728V325.836C23.74 326.028 24.202 326.406 24.514 326.97C24.838 327.522 25 328.248 25 329.148C25 330.408 24.676 331.404 24.028 332.136C23.392 332.856 22.414 333.216 21.094 333.216ZM17.3568 319.806H20.5428V318.384H22.1628V319.95H23.4948V318.384H25.1148V321.354H17.3568V319.806ZM23.5548 314.64H25.2648V317.394H23.5548V314.64ZM31.6205 333.216C31.0205 333.216 30.4565 333.132 29.9285 332.964C29.4125 332.784 28.9625 332.544 28.5785 332.244C28.2065 331.932 27.9125 331.56 27.6965 331.128C27.4805 330.696 27.3725 330.216 27.3725 329.688V328.788C27.3725 328.368 27.4685 328.044 27.6605 327.816C27.8525 327.576 28.2005 327.456 28.7045 327.456H30.7205V329.004H29.2265V329.544C29.2265 330.264 29.4485 330.792 29.8925 331.128C30.3485 331.452 30.9545 331.614 31.7105 331.614C32.4905 331.614 33.0905 331.374 33.5105 330.894C33.9425 330.414 34.1585 329.736 34.1585 328.86V327.312C34.1585 326.424 33.9185 325.734 33.4385 325.242C32.9705 324.75 32.3045 324.504 31.4405 324.504C30.7205 324.504 30.1025 324.654 29.5865 324.954C29.0825 325.254 28.6985 325.614 28.4345 326.034L27.2105 324.936C27.5585 324.36 28.0925 323.88 28.8125 323.496C29.5325 323.1 30.4385 322.902 31.5305 322.902C33.0185 322.902 34.1765 323.358 35.0045 324.27C35.8325 325.17 36.2465 326.43 36.2465 328.05C36.2465 328.842 36.1445 329.562 35.9405 330.21C35.7365 330.846 35.4365 331.386 35.0405 331.83C34.6445 332.274 34.1585 332.616 33.5825 332.856C33.0065 333.096 32.3525 333.216 31.6205 333.216ZM41.141 333C40.457 333 39.953 332.826 39.629 332.478C39.305 332.13 39.143 331.644 39.143 331.02V323.118H41.105V331.398H42.509V333H41.141ZM47.4707 333.18C46.4987 333.18 45.7187 332.94 45.1307 332.46C44.5547 331.98 44.2667 331.254 44.2667 330.282C44.2667 329.358 44.5427 328.644 45.0947 328.14C45.6587 327.636 46.4507 327.384 47.4707 327.384H50.5307V326.628C50.5307 325.932 50.3387 325.404 49.9547 325.044C49.5827 324.684 49.0007 324.504 48.2087 324.504C47.5007 324.504 46.9187 324.654 46.4627 324.954C46.0187 325.254 45.6527 325.632 45.3647 326.088L44.1047 324.99C44.4887 324.378 45.0107 323.88 45.6707 323.496C46.3427 323.1 47.2307 322.902 48.3347 322.902C49.6907 322.902 50.7227 323.22 51.4307 323.856C52.1387 324.48 52.4927 325.38 52.4927 326.556V333H50.5307V328.698H48.0647C47.4887 328.698 47.0447 328.818 46.7327 329.058C46.4327 329.298 46.2827 329.646 46.2827 330.102V330.462C46.2827 330.918 46.4207 331.278 46.6967 331.542C46.9727 331.806 47.3507 331.938 47.8307 331.938C48.0707 331.938 48.2627 331.92 48.4067 331.884L48.5687 333.072C48.4607 333.096 48.2927 333.12 48.0647 333.144C47.8367 333.168 47.6387 333.18 47.4707 333.18ZM50.7463 317.862H52.5823V321.354H50.7463V317.862ZM58.6587 333.216C57.6267 333.216 56.8287 332.886 56.2647 332.226C55.7007 331.554 55.4187 330.606 55.4187 329.382V323.118H57.3807V329.166C57.3807 329.934 57.5367 330.522 57.8487 330.93C58.1727 331.326 58.6887 331.524 59.3967 331.524C59.6607 331.524 59.9247 331.494 60.1887 331.434C60.4527 331.362 60.6867 331.254 60.8907 331.11C61.1067 330.966 61.2747 330.786 61.3947 330.57C61.5267 330.342 61.5927 330.078 61.5927 329.778V323.118H63.5547V331.398H64.5987V333H63.3027C62.7987 333 62.4207 332.856 62.1687 332.568C61.9167 332.268 61.7787 331.854 61.7547 331.326H61.6647C61.4607 331.878 61.1067 332.334 60.6027 332.694C60.1107 333.042 59.4627 333.216 58.6587 333.216Z" fill="#1C1B1B"/>
<rect x="16.5" y="354.5" width="287" height="39" rx="3.5" stroke="#1C1B1B"/>
<path d="M36.352 379.192C35.552 379.192 34.8693 379.048 34.304 378.76C33.7387 378.472 33.264 378.067 32.88 377.544L33.792 376.808C34.1227 377.256 34.5013 377.587 34.928 377.8C35.3653 378.003 35.872 378.104 36.448 378.104C37.088 378.104 37.5733 377.981 37.904 377.736C38.2453 377.491 38.416 377.128 38.416 376.648C38.416 376.243 38.2827 375.928 38.016 375.704C37.76 375.469 37.344 375.309 36.768 375.224L36.016 375.112C35.6747 375.059 35.3387 374.984 35.008 374.888C34.6773 374.792 34.3733 374.653 34.096 374.472C33.8293 374.291 33.6107 374.051 33.44 373.752C33.28 373.453 33.2 373.08 33.2 372.632C33.2 372.216 33.2747 371.848 33.424 371.528C33.584 371.208 33.8027 370.941 34.08 370.728C34.368 370.515 34.704 370.355 35.088 370.248C35.472 370.131 35.888 370.072 36.336 370.072C37.0933 370.072 37.7227 370.2 38.224 370.456C38.736 370.701 39.1627 371.027 39.504 371.432L38.688 372.2C38.4533 371.923 38.1387 371.683 37.744 371.48C37.3493 371.267 36.8693 371.16 36.304 371.16C35.7067 371.16 35.248 371.283 34.928 371.528C34.608 371.773 34.448 372.115 34.448 372.552C34.448 373.021 34.6027 373.352 34.912 373.544C35.2213 373.736 35.648 373.875 36.192 373.96L36.944 374.072C37.3387 374.136 37.7013 374.221 38.032 374.328C38.3627 374.435 38.6453 374.584 38.88 374.776C39.1253 374.968 39.3173 375.208 39.456 375.496C39.5947 375.773 39.664 376.115 39.664 376.52C39.664 377.352 39.3653 378.008 38.768 378.488C38.1813 378.957 37.376 379.192 36.352 379.192ZM43.5016 377.4C43.0216 377.4 42.6696 377.283 42.4456 377.048C42.2216 376.813 42.1096 376.504 42.1096 376.12V375.432H43.3896V376.296H46.1576V377.4H43.5016ZM43.5016 373.288C43.0216 373.288 42.6696 373.171 42.4456 372.936C42.2216 372.701 42.1096 372.392 42.1096 372.008V371.32H43.3896V372.184H46.1576V373.288H43.5016ZM52.6155 379.192C51.4848 379.192 50.5942 378.888 49.9435 378.28C49.2928 377.661 48.9675 376.819 48.9675 375.752V370.264H50.2475V375.624C50.2475 376.424 50.4555 377.037 50.8715 377.464C51.2982 377.88 51.8795 378.088 52.6155 378.088C53.3515 378.088 53.9275 377.88 54.3435 377.464C54.7702 377.037 54.9835 376.424 54.9835 375.624V370.264H56.2635V375.752C56.2635 376.819 55.9382 377.661 55.2875 378.28C54.6368 378.888 53.7462 379.192 52.6155 379.192ZM55.2996 381.832H54.2436V380.808H55.6036C55.9236 380.808 56.1583 380.893 56.3076 381.064C56.4463 381.235 56.5156 381.464 56.5156 381.752V384.504H55.2996V381.832ZM62.5749 379.192C61.5722 379.192 60.7615 378.936 60.1429 378.424C59.5349 377.912 59.2309 377.133 59.2309 376.088C59.2309 375.779 59.2522 375.507 59.2949 375.272C59.3482 375.027 59.4122 374.808 59.4869 374.616C59.5722 374.413 59.6682 374.227 59.7749 374.056C59.8815 373.885 59.9989 373.72 60.1269 373.56C60.3509 373.261 60.5375 372.973 60.6869 372.696C60.8362 372.419 60.9109 372.125 60.9109 371.816V371.384H59.0869V370.264H60.9589C61.3535 370.264 61.6522 370.371 61.8549 370.584C62.0682 370.787 62.1749 371.059 62.1749 371.4V371.544C62.1749 371.928 62.1002 372.285 61.9509 372.616C61.8122 372.936 61.6042 373.315 61.3269 373.752C61.0815 374.125 60.9002 374.467 60.7829 374.776C60.6655 375.075 60.6069 375.405 60.6069 375.768V376.264C60.6069 376.893 60.7829 377.357 61.1349 377.656C61.4869 377.944 61.9562 378.088 62.5429 378.088C63.1509 378.088 63.6202 377.944 63.9509 377.656C64.2815 377.357 64.4469 376.936 64.4469 376.392V375C64.4469 374.456 64.3402 374.04 64.1269 373.752C63.9135 373.453 63.6202 373.304 63.2469 373.304H62.7989V372.28H63.2789C63.6522 372.28 63.9455 372.173 64.1589 371.96C64.3829 371.736 64.4949 371.379 64.4949 370.888V370.008H65.7749V370.84C65.7749 371.107 65.7269 371.347 65.6309 371.56C65.5349 371.763 65.4122 371.939 65.2629 372.088C65.1135 372.237 64.9375 372.36 64.7349 372.456C64.5429 372.541 64.3455 372.6 64.1429 372.632V372.712C64.7082 372.872 65.1295 373.219 65.4069 373.752C65.6842 374.285 65.8229 374.92 65.8229 375.656C65.8229 376.755 65.5402 377.619 64.9749 378.248C64.4095 378.877 63.6095 379.192 62.5749 379.192ZM59.5032 367.448H62.5432V366.28H63.6793V367.512H64.8312V366.28H66.0312V368.552H59.5032V367.448ZM65.0972 362.888H66.2812V365.272H65.0972V362.888ZM72.2825 379.192C71.7705 379.192 71.2905 379.117 70.8425 378.968C70.3945 378.819 70.0052 378.605 69.6745 378.328C69.3438 378.04 69.0825 377.704 68.8905 377.32C68.6985 376.925 68.6025 376.488 68.6025 376.008V375.192C68.6025 374.872 68.6665 374.627 68.7945 374.456C68.9225 374.275 69.1945 374.184 69.6105 374.184H71.3065V375.288H69.8985V375.944C69.8985 376.317 69.9572 376.643 70.0745 376.92C70.2025 377.197 70.3732 377.427 70.5865 377.608C70.7998 377.779 71.0558 377.907 71.3545 377.992C71.6638 378.077 71.9945 378.12 72.3465 378.12C73.1465 378.12 73.7705 377.875 74.2185 377.384C74.6665 376.893 74.8905 376.205 74.8905 375.32V374.008C74.8905 373.112 74.6452 372.419 74.1545 371.928C73.6745 371.427 73.0025 371.176 72.1385 371.176C71.4772 371.176 70.9065 371.309 70.4265 371.576C69.9465 371.843 69.5678 372.2 69.2905 372.648L68.4585 371.912C68.7572 371.389 69.2105 370.952 69.8185 370.6C70.4372 370.248 71.2318 370.072 72.2025 370.072C73.4932 370.072 74.4905 370.477 75.1945 371.288C75.9092 372.088 76.2665 373.203 76.2665 374.632C76.2665 375.325 76.1812 375.955 76.0105 376.52C75.8398 377.085 75.5838 377.565 75.2425 377.96C74.9118 378.355 74.4958 378.659 73.9945 378.872C73.5038 379.085 72.9332 379.192 72.2825 379.192ZM80.6848 379C80.2368 379 79.8954 378.877 79.6608 378.632C79.4368 378.387 79.3248 378.061 79.3248 377.656V370.264H80.6048V377.88H81.9488V379H80.6848ZM86.7013 379.16C85.8159 379.16 85.1119 378.941 84.5893 378.504C84.0666 378.067 83.8053 377.432 83.8053 376.6C83.8053 375.789 84.0613 375.165 84.5733 374.728C85.0959 374.291 85.8053 374.072 86.7013 374.072H89.4853V373.24C89.4853 371.864 88.7333 371.176 87.2293 371.176C86.5893 371.176 86.0506 371.309 85.6133 371.576C85.1866 371.832 84.8399 372.189 84.5733 372.648L83.7573 371.928C84.0346 371.405 84.4613 370.968 85.0373 370.616C85.6133 370.253 86.3653 370.072 87.2933 370.072C88.4026 370.072 89.2559 370.349 89.8533 370.904C90.4613 371.448 90.7653 372.205 90.7653 373.176V379H89.4853V374.984H86.9893C86.4133 374.984 85.9653 375.107 85.6453 375.352C85.3253 375.597 85.1653 375.944 85.1653 376.392V376.76C85.1653 377.24 85.3093 377.608 85.5973 377.864C85.8959 378.109 86.2959 378.232 86.7973 378.232C86.9466 378.232 87.0693 378.227 87.1653 378.216C87.2719 378.205 87.3573 378.195 87.4213 378.184L87.5333 379.064C87.4693 379.096 87.3466 379.117 87.1653 379.128C86.9946 379.149 86.8399 379.16 86.7013 379.16ZM89.7676 365.592H91.0156V368.552H89.7676V365.592ZM96.7869 379.192C95.8589 379.192 95.1335 378.899 94.6109 378.312C94.0882 377.725 93.8269 376.899 93.8269 375.832V370.264H95.1069V375.672C95.1069 377.293 95.8002 378.104 97.1869 378.104C97.4535 378.104 97.7202 378.067 97.9869 377.992C98.2535 377.917 98.4882 377.805 98.6909 377.656C98.8935 377.507 99.0589 377.32 99.1869 377.096C99.3149 376.872 99.3789 376.611 99.3789 376.312V370.264H100.659V377.88H101.683V379H100.739C100.312 379 99.9975 378.872 99.7949 378.616C99.6029 378.36 99.4909 378.035 99.4589 377.64H99.3949C99.2242 378.131 98.9042 378.515 98.4349 378.792C97.9762 379.059 97.4269 379.192 96.7869 379.192Z" fill="#1C1B1B"/>
<path d="M20.428 437.216C19.924 437.216 19.444 437.156 18.988 437.036C18.532 436.916 18.13 436.736 17.782 436.496L18.52 435.092C18.76 435.236 19.024 435.362 19.312 435.47C19.612 435.566 19.954 435.614 20.338 435.614C21.058 435.614 21.61 435.374 21.994 434.894C22.39 434.402 22.588 433.73 22.588 432.878V431.24C22.588 430.4 22.396 429.734 22.012 429.242C21.64 428.75 21.088 428.504 20.356 428.504C19.768 428.504 19.288 428.642 18.916 428.918C18.544 429.182 18.274 429.542 18.106 429.998L16.504 429.242C16.804 428.522 17.284 427.952 17.944 427.532C18.604 427.112 19.432 426.902 20.428 426.902C21.112 426.902 21.718 427.022 22.246 427.262C22.774 427.502 23.218 427.844 23.578 428.288C23.938 428.732 24.208 429.272 24.388 429.908C24.58 430.544 24.676 431.258 24.676 432.05C24.676 432.842 24.58 433.562 24.388 434.21C24.196 434.846 23.92 435.386 23.56 435.83C23.2 436.274 22.756 436.616 22.228 436.856C21.7 437.096 21.1 437.216 20.428 437.216ZM22.5033 425.354C21.8793 425.354 21.4113 425.204 21.0993 424.904C20.7873 424.604 20.6313 424.184 20.6313 423.644V422.384H22.3593V423.806H27.0393V425.354H22.5033ZM30.4517 437.216C29.4197 437.216 28.6217 436.886 28.0577 436.226C27.4937 435.554 27.2117 434.606 27.2117 433.382V427.118H29.1737V433.166C29.1737 433.934 29.3297 434.522 29.6417 434.93C29.9657 435.326 30.4817 435.524 31.1897 435.524C31.4537 435.524 31.7177 435.494 31.9817 435.434C32.2457 435.362 32.4797 435.254 32.6837 435.11C32.8997 434.966 33.0677 434.786 33.1877 434.57C33.3197 434.342 33.3857 434.078 33.3857 433.778V427.118H35.3477V435.398H36.3917V437H35.0957C34.5917 437 34.2137 436.856 33.9617 436.568C33.7097 436.268 33.5717 435.854 33.5477 435.326H33.4577C33.2537 435.878 32.8997 436.334 32.3957 436.694C31.9037 437.042 31.2557 437.216 30.4517 437.216ZM37.283 439.718L42.269 423.68H43.961L38.975 439.718H37.283ZM48.6469 437C47.9629 437 47.4589 436.826 47.1349 436.478C46.8109 436.13 46.6489 435.644 46.6489 435.02V427.118H48.6109V435.398H50.0149V437H48.6469ZM55.9665 437.216C54.5985 437.216 53.5365 436.76 52.7805 435.848C52.0245 434.924 51.6465 433.658 51.6465 432.05C51.6465 431.27 51.7545 430.562 51.9705 429.926C52.1985 429.29 52.5165 428.75 52.9245 428.306C53.3445 427.85 53.8485 427.502 54.4365 427.262C55.0245 427.022 55.6845 426.902 56.4165 426.902C57.0885 426.902 57.7005 427.004 58.2525 427.208C58.8045 427.4 59.2725 427.676 59.6565 428.036C60.0525 428.396 60.3525 428.834 60.5565 429.35C60.7725 429.854 60.8805 430.418 60.8805 431.042V437H58.9185V431.204C58.9185 430.352 58.6905 429.692 58.2345 429.224C57.7785 428.744 57.1545 428.504 56.3625 428.504C55.5345 428.504 54.8865 428.762 54.4185 429.278C53.9625 429.794 53.7345 430.496 53.7345 431.384V432.698C53.7345 433.646 53.9385 434.372 54.3465 434.876C54.7665 435.368 55.4025 435.614 56.2545 435.614C56.5185 435.614 56.7645 435.59 56.9925 435.542L57.2265 437.09C57.0465 437.138 56.8305 437.168 56.5785 437.18C56.3385 437.204 56.1345 437.216 55.9665 437.216ZM53.2807 423.806H56.4667V422.384H58.0867V423.95H59.4187V422.384H61.0387V425.354H53.2807V423.806ZM67.7635 437.216C67.1635 437.216 66.5995 437.132 66.0715 436.964C65.5555 436.784 65.1055 436.544 64.7215 436.244C64.3495 435.932 64.0555 435.56 63.8395 435.128C63.6235 434.696 63.5155 434.216 63.5155 433.688V432.788C63.5155 432.368 63.6115 432.044 63.8035 431.816C63.9955 431.576 64.3435 431.456 64.8475 431.456H66.8635V433.004H65.3695V433.544C65.3695 434.264 65.5915 434.792 66.0355 435.128C66.4915 435.452 67.0975 435.614 67.8535 435.614C68.6335 435.614 69.2335 435.374 69.6535 434.894C70.0855 434.414 70.3015 433.736 70.3015 432.86V431.312C70.3015 430.424 70.0615 429.734 69.5815 429.242C69.1135 428.75 68.4475 428.504 67.5835 428.504C66.8635 428.504 66.2455 428.654 65.7295 428.954C65.2255 429.254 64.8415 429.614 64.5775 430.034L63.3535 428.936C63.7015 428.36 64.2355 427.88 64.9555 427.496C65.6755 427.1 66.5815 426.902 67.6735 426.902C69.1615 426.902 70.3195 427.358 71.1475 428.27C71.9755 429.17 72.3895 430.43 72.3895 432.05C72.3895 432.842 72.2875 433.562 72.0835 434.21C71.8795 434.846 71.5795 435.386 71.1835 435.83C70.7875 436.274 70.3015 436.616 69.7255 436.856C69.1495 437.096 68.4955 437.216 67.7635 437.216ZM78.004 437.216C76.972 437.216 76.174 436.886 75.61 436.226C75.046 435.554 74.764 434.606 74.764 433.382V427.118H76.726V433.166C76.726 433.934 76.882 434.522 77.194 434.93C77.518 435.326 78.034 435.524 78.742 435.524C79.006 435.524 79.27 435.494 79.534 435.434C79.798 435.362 80.032 435.254 80.236 435.11C80.452 434.966 80.62 434.786 80.74 434.57C80.872 434.342 80.938 434.078 80.938 433.778V427.118H82.9V435.398H83.944V437H82.648C82.144 437 81.766 436.856 81.514 436.568C81.262 436.268 81.124 435.854 81.1 435.326H81.01C80.806 435.878 80.452 436.334 79.948 436.694C79.456 437.042 78.808 437.216 78.004 437.216ZM84.8354 439.718L89.8214 423.68H91.5134L86.5274 439.718H84.8354ZM97.9272 437.216C97.2672 437.216 96.6732 437.126 96.1452 436.946C95.6292 436.754 95.1852 436.49 94.8132 436.154C94.4532 435.806 94.1712 435.392 93.9672 434.912C93.7752 434.42 93.6792 433.874 93.6792 433.274V427.118H95.6412V433.13C95.6412 433.922 95.8392 434.534 96.2352 434.966C96.6432 435.398 97.2072 435.614 97.9272 435.614C98.6472 435.614 99.2052 435.398 99.6012 434.966C100.009 434.534 100.213 433.922 100.213 433.13V423.806H102.175V433.274C102.175 433.874 102.073 434.42 101.869 434.912C101.677 435.392 101.395 435.806 101.023 436.154C100.663 436.49 100.219 436.754 99.6912 436.946C99.1752 437.126 98.5872 437.216 97.9272 437.216ZM92.5971 423.806H97.3491V422.384H99.1851V425.354H92.5971V423.806ZM107.626 437C106.942 437 106.438 436.826 106.114 436.478C105.79 436.13 105.628 435.644 105.628 435.02V427.118H107.59V435.398H108.994V437H107.626ZM111.994 431.546L110.446 430.898C110.494 430.31 110.638 429.77 110.878 429.278C111.13 428.786 111.46 428.366 111.868 428.018C112.276 427.658 112.756 427.382 113.308 427.19C113.86 426.998 114.46 426.902 115.108 426.902C116.536 426.902 117.646 427.268 118.438 428C119.23 428.72 119.626 429.698 119.626 430.934V437H117.664V431.186C117.664 430.322 117.43 429.662 116.962 429.206C116.494 428.738 115.852 428.504 115.036 428.504C114.376 428.504 113.794 428.654 113.29 428.954C112.798 429.242 112.462 429.632 112.282 430.124L113.056 430.43C113.392 430.562 113.626 430.718 113.758 430.898C113.89 431.066 113.956 431.318 113.956 431.654V437H111.994V431.546ZM112.014 423.806H119.772V425.354H112.014V423.806ZM126.478 437.216C125.11 437.216 124.048 436.76 123.292 435.848C122.536 434.924 122.158 433.658 122.158 432.05C122.158 431.27 122.266 430.562 122.482 429.926C122.71 429.29 123.028 428.75 123.436 428.306C123.856 427.85 124.36 427.502 124.948 427.262C125.536 427.022 126.196 426.902 126.928 426.902C127.6 426.902 128.212 427.004 128.764 427.208C129.316 427.4 129.784 427.676 130.168 428.036C130.564 428.396 130.864 428.834 131.068 429.35C131.284 429.854 131.392 430.418 131.392 431.042V437H129.43V431.204C129.43 430.352 129.202 429.692 128.746 429.224C128.29 428.744 127.666 428.504 126.874 428.504C126.046 428.504 125.398 428.762 124.93 429.278C124.474 429.794 124.246 430.496 124.246 431.384V432.698C124.246 433.646 124.45 434.372 124.858 434.876C125.278 435.368 125.914 435.614 126.766 435.614C127.03 435.614 127.276 435.59 127.504 435.542L127.738 437.09C127.558 437.138 127.342 437.168 127.09 437.18C126.85 437.204 126.646 437.216 126.478 437.216Z" fill="#1C1B1B"/>
<path d="M140.189 431.168L138.821 430.214L140.729 427.838L137.867 427.01L138.389 425.444L141.143 426.524L141.017 423.554H142.727L142.601 426.524L145.355 425.444L145.895 427.01L143.015 427.838L144.923 430.214L143.555 431.168L141.863 428.648L140.189 431.168Z" fill="#BA1A1A"/>
<rect x="16.5" y="458.5" width="287" height="39" rx="3.5" stroke="#C0C8CB"/>
<path d="M36.896 483.216C35.996 483.216 35.228 483.054 34.592 482.73C33.956 482.406 33.422 481.95 32.99 481.362L34.016 480.534C34.388 481.038 34.814 481.41 35.294 481.65C35.786 481.878 36.356 481.992 37.004 481.992C37.724 481.992 38.27 481.854 38.642 481.578C39.026 481.302 39.218 480.894 39.218 480.354C39.218 479.898 39.068 479.544 38.768 479.292C38.48 479.028 38.012 478.848 37.364 478.752L36.518 478.626C36.134 478.566 35.756 478.482 35.384 478.374C35.012 478.266 34.67 478.11 34.358 477.906C34.058 477.702 33.812 477.432 33.62 477.096C33.44 476.76 33.35 476.34 33.35 475.836C33.35 475.368 33.434 474.954 33.602 474.594C33.782 474.234 34.028 473.934 34.34 473.694C34.664 473.454 35.042 473.274 35.474 473.154C35.906 473.022 36.374 472.956 36.878 472.956C37.73 472.956 38.438 473.1 39.002 473.388C39.578 473.664 40.058 474.03 40.442 474.486L39.524 475.35C39.26 475.038 38.906 474.768 38.462 474.54C38.018 474.3 37.478 474.18 36.842 474.18C36.17 474.18 35.654 474.318 35.294 474.594C34.934 474.87 34.754 475.254 34.754 475.746C34.754 476.274 34.928 476.646 35.276 476.862C35.624 477.078 36.104 477.234 36.716 477.33L37.562 477.456C38.006 477.528 38.414 477.624 38.786 477.744C39.158 477.864 39.476 478.032 39.74 478.248C40.016 478.464 40.232 478.734 40.388 479.058C40.544 479.37 40.622 479.754 40.622 480.21C40.622 481.146 40.286 481.884 39.614 482.424C38.954 482.952 38.048 483.216 36.896 483.216ZM45.1581 481.2C44.6181 481.2 44.2221 481.068 43.9701 480.804C43.7181 480.54 43.5921 480.192 43.5921 479.76V478.986H45.0321V479.958H48.1461V481.2H45.1581ZM45.1581 476.574C44.6181 476.574 44.2221 476.442 43.9701 476.178C43.7181 475.914 43.5921 475.566 43.5921 475.134V474.36H45.0321V475.332H48.1461V476.574H45.1581ZM55.6299 483.216C54.3579 483.216 53.3559 482.874 52.6239 482.19C51.8919 481.494 51.5259 480.546 51.5259 479.346V473.172H52.9659V479.202C52.9659 480.102 53.1999 480.792 53.6679 481.272C54.1479 481.74 54.8019 481.974 55.6299 481.974C56.4579 481.974 57.1059 481.74 57.5739 481.272C58.0539 480.792 58.2939 480.102 58.2939 479.202V473.172H59.7339V479.346C59.7339 480.546 59.3679 481.494 58.6359 482.19C57.9039 482.874 56.9019 483.216 55.6299 483.216ZM58.8683 486.186H57.6803V485.034H59.2103C59.5703 485.034 59.8343 485.13 60.0023 485.322C60.1583 485.514 60.2363 485.772 60.2363 486.096V489.192H58.8683V486.186ZM66.6237 483.216C66.1557 483.216 65.7057 483.156 65.2737 483.036C64.8417 482.928 64.4697 482.772 64.1577 482.568L64.6977 481.506C65.2137 481.818 65.8437 481.974 66.5877 481.974C67.4157 481.974 68.0577 481.698 68.5137 481.146C68.9697 480.582 69.1977 479.808 69.1977 478.824V477.348C69.1977 476.376 68.9757 475.608 68.5317 475.044C68.0997 474.48 67.4517 474.198 66.5877 474.198C65.9397 474.198 65.4057 474.336 64.9857 474.612C64.5657 474.876 64.2417 475.248 64.0137 475.728L62.8437 475.134C63.1437 474.486 63.6057 473.964 64.2297 473.568C64.8537 473.16 65.6517 472.956 66.6237 472.956C67.9677 472.956 68.9877 473.412 69.6837 474.324C70.3917 475.224 70.7457 476.478 70.7457 478.086C70.7457 479.694 70.3857 480.954 69.6657 481.866C68.9457 482.766 67.9317 483.216 66.6237 483.216ZM69.3396 471.246C68.7996 471.246 68.4036 471.114 68.1516 470.85C67.8996 470.586 67.7736 470.238 67.7736 469.806V468.69H69.2136V470.004H73.8036V471.246H69.3396ZM77.5981 483.216C76.5541 483.216 75.7381 482.886 75.1501 482.226C74.5621 481.566 74.2681 480.636 74.2681 479.436V473.172H75.7081V479.256C75.7081 481.08 76.4881 481.992 78.0481 481.992C78.3481 481.992 78.6481 481.95 78.9481 481.866C79.2481 481.782 79.5121 481.656 79.7401 481.488C79.9681 481.32 80.1541 481.11 80.2981 480.858C80.4421 480.606 80.5141 480.312 80.5141 479.976V473.172H81.9541V481.74H83.1061V483H82.0441C81.5641 483 81.2101 482.856 80.9821 482.568C80.7661 482.28 80.6401 481.914 80.6041 481.47H80.5321C80.3401 482.022 79.9801 482.454 79.4521 482.766C78.9361 483.066 78.3181 483.216 77.5981 483.216ZM84.4061 485.718L89.1041 469.68H90.4001L85.7021 485.718H84.4061ZM95.2528 483C94.7488 483 94.3648 482.862 94.1008 482.586C93.8488 482.31 93.7228 481.944 93.7228 481.488V473.172H95.1628V481.74H96.6748V483H95.2528ZM103.122 483.216C102.45 483.216 101.85 483.096 101.322 482.856C100.806 482.616 100.368 482.28 100.008 481.848C99.6481 481.404 99.3721 480.864 99.1801 480.228C99.0001 479.592 98.9101 478.878 98.9101 478.086C98.9101 477.318 99.0181 476.616 99.2341 475.98C99.4501 475.344 99.7561 474.804 100.152 474.36C100.56 473.916 101.052 473.574 101.628 473.334C102.204 473.082 102.852 472.956 103.572 472.956C104.22 472.956 104.808 473.052 105.336 473.244C105.876 473.436 106.332 473.712 106.704 474.072C107.088 474.42 107.382 474.846 107.586 475.35C107.79 475.842 107.892 476.394 107.892 477.006V483H106.452V477.204C106.452 476.256 106.188 475.518 105.66 474.99C105.144 474.462 104.43 474.198 103.518 474.198C102.558 474.198 101.808 474.492 101.268 475.08C100.728 475.656 100.458 476.442 100.458 477.438V478.734C100.458 479.79 100.698 480.594 101.178 481.146C101.658 481.698 102.396 481.974 103.392 481.974C103.524 481.974 103.656 481.974 103.788 481.974C103.932 481.962 104.076 481.938 104.22 481.902L104.4 483.108C104.196 483.168 103.98 483.198 103.752 483.198C103.524 483.21 103.314 483.216 103.122 483.216ZM101.041 470.004H104.461V468.69H105.739V470.076H107.035V468.69H108.385V471.246H101.041V470.004ZM115.636 483.216C115.06 483.216 114.52 483.132 114.016 482.964C113.512 482.796 113.074 482.556 112.702 482.244C112.33 481.92 112.036 481.542 111.82 481.11C111.604 480.666 111.496 480.174 111.496 479.634V478.716C111.496 478.356 111.568 478.08 111.712 477.888C111.856 477.684 112.162 477.582 112.63 477.582H114.538V478.824H112.954V479.562C112.954 479.982 113.02 480.348 113.152 480.66C113.296 480.972 113.488 481.23 113.728 481.434C113.968 481.626 114.256 481.77 114.592 481.866C114.94 481.962 115.312 482.01 115.708 482.01C116.608 482.01 117.31 481.734 117.814 481.182C118.318 480.63 118.57 479.856 118.57 478.86V477.384C118.57 476.376 118.294 475.596 117.742 475.044C117.202 474.48 116.446 474.198 115.474 474.198C114.73 474.198 114.088 474.348 113.548 474.648C113.008 474.948 112.582 475.35 112.27 475.854L111.334 475.026C111.67 474.438 112.18 473.946 112.864 473.55C113.56 473.154 114.454 472.956 115.546 472.956C116.998 472.956 118.12 473.412 118.912 474.324C119.716 475.224 120.118 476.478 120.118 478.086C120.118 478.866 120.022 479.574 119.83 480.21C119.638 480.846 119.35 481.386 118.966 481.83C118.594 482.274 118.126 482.616 117.562 482.856C117.01 483.096 116.368 483.216 115.636 483.216ZM126.459 483.216C125.415 483.216 124.599 482.886 124.011 482.226C123.423 481.566 123.129 480.636 123.129 479.436V473.172H124.569V479.256C124.569 481.08 125.349 481.992 126.909 481.992C127.209 481.992 127.509 481.95 127.809 481.866C128.109 481.782 128.373 481.656 128.601 481.488C128.829 481.32 129.015 481.11 129.159 480.858C129.303 480.606 129.375 480.312 129.375 479.976V473.172H130.815V481.74H131.967V483H130.905C130.425 483 130.071 482.856 129.843 482.568C129.627 482.28 129.501 481.914 129.465 481.47H129.393C129.201 482.022 128.841 482.454 128.313 482.766C127.797 483.066 127.179 483.216 126.459 483.216ZM133.267 485.718L137.965 469.68H139.261L134.563 485.718H133.267ZM146.04 483.216C144.768 483.216 143.766 482.874 143.034 482.19C142.302 481.494 141.936 480.546 141.936 479.346V473.172H143.376V479.202C143.376 480.102 143.61 480.792 144.078 481.272C144.558 481.74 145.212 481.974 146.04 481.974C146.868 481.974 147.516 481.74 147.984 481.272C148.464 480.792 148.704 480.102 148.704 479.202V470.004H150.144V479.346C150.144 480.546 149.778 481.494 149.046 482.19C148.314 482.874 147.312 483.216 146.04 483.216ZM141.411 470.004H146.631V468.69H148.035V471.246H141.411V470.004ZM156.206 483C155.702 483 155.318 482.862 155.054 482.586C154.802 482.31 154.676 481.944 154.676 481.488V473.172H156.116V481.74H157.628V483H156.206ZM161.195 477.384L159.665 476.736C159.701 476.184 159.833 475.68 160.061 475.224C160.301 474.756 160.613 474.354 160.997 474.018C161.381 473.682 161.825 473.424 162.329 473.244C162.845 473.052 163.403 472.956 164.003 472.956C165.407 472.956 166.481 473.31 167.225 474.018C167.969 474.714 168.341 475.662 168.341 476.862V483H166.901V477.042C166.901 476.106 166.637 475.398 166.109 474.918C165.593 474.438 164.909 474.198 164.057 474.198C163.685 474.198 163.331 474.246 162.995 474.342C162.671 474.426 162.377 474.552 162.113 474.72C161.849 474.876 161.621 475.074 161.429 475.314C161.237 475.542 161.099 475.8 161.015 476.088L161.915 476.448C162.167 476.544 162.347 476.67 162.455 476.826C162.575 476.97 162.635 477.174 162.635 477.438V483H161.195V477.384ZM161.502 470.004H168.846V471.246H161.502V470.004ZM176.079 483.216C175.407 483.216 174.807 483.096 174.279 482.856C173.763 482.616 173.325 482.28 172.965 481.848C172.605 481.404 172.329 480.864 172.137 480.228C171.957 479.592 171.867 478.878 171.867 478.086C171.867 477.318 171.975 476.616 172.191 475.98C172.407 475.344 172.713 474.804 173.109 474.36C173.517 473.916 174.009 473.574 174.585 473.334C175.161 473.082 175.809 472.956 176.529 472.956C177.177 472.956 177.765 473.052 178.293 473.244C178.833 473.436 179.289 473.712 179.661 474.072C180.045 474.42 180.339 474.846 180.543 475.35C180.747 475.842 180.849 476.394 180.849 477.006V483H179.409V477.204C179.409 476.256 179.145 475.518 178.617 474.99C178.101 474.462 177.387 474.198 176.475 474.198C175.515 474.198 174.765 474.492 174.225 475.08C173.685 475.656 173.415 476.442 173.415 477.438V478.734C173.415 479.79 173.655 480.594 174.135 481.146C174.615 481.698 175.353 481.974 176.349 481.974C176.481 481.974 176.613 481.974 176.745 481.974C176.889 481.962 177.033 481.938 177.177 481.902L177.357 483.108C177.153 483.168 176.937 483.198 176.709 483.198C176.481 483.21 176.271 483.216 176.079 483.216Z" fill="#1C1B1B"/>
<rect width="35" height="20" transform="translate(28 439)" fill="white"/>
<path d="M35.458 453.168C35.094 453.168 34.744 453.121 34.408 453.028C34.072 452.944 33.7827 452.823 33.54 452.664L33.96 451.838C34.3613 452.081 34.8513 452.202 35.43 452.202C36.074 452.202 36.5733 451.987 36.928 451.558C37.2827 451.119 37.46 450.517 37.46 449.752V448.604C37.46 447.848 37.2873 447.251 36.942 446.812C36.606 446.373 36.102 446.154 35.43 446.154C34.926 446.154 34.5107 446.261 34.184 446.476C33.8573 446.681 33.6053 446.971 33.428 447.344L32.518 446.882C32.7513 446.378 33.1107 445.972 33.596 445.664C34.0813 445.347 34.702 445.188 35.458 445.188C36.5033 445.188 37.2967 445.543 37.838 446.252C38.3887 446.952 38.664 447.927 38.664 449.178C38.664 450.429 38.384 451.409 37.824 452.118C37.264 452.818 36.4753 453.168 35.458 453.168ZM37.5814 443.858C37.1614 443.858 36.8534 443.755 36.6574 443.55C36.4614 443.345 36.3634 443.074 36.3634 442.738V441.87H37.4834V442.892H41.0534V443.858H37.5814ZM44.0159 453.168C43.2039 453.168 42.5692 452.911 42.1119 452.398C41.6545 451.885 41.4259 451.161 41.4259 450.228V445.356H42.5459V450.088C42.5459 451.507 43.1525 452.216 44.3659 452.216C44.5992 452.216 44.8325 452.183 45.0659 452.118C45.2992 452.053 45.5045 451.955 45.6819 451.824C45.8592 451.693 46.0039 451.53 46.1159 451.334C46.2279 451.138 46.2839 450.909 46.2839 450.648V445.356H47.4039V452.02H48.2999V453H47.4739C47.1005 453 46.8252 452.888 46.6479 452.664C46.4799 452.44 46.3819 452.155 46.3539 451.81H46.2979C46.1485 452.239 45.8685 452.575 45.4579 452.818C45.0565 453.051 44.5759 453.168 44.0159 453.168ZM50.3861 445.356H51.5061V446.602H51.5761C51.6508 446.425 51.7441 446.252 51.8561 446.084C51.9774 445.907 52.1268 445.753 52.3041 445.622C52.4908 445.491 52.7054 445.389 52.9481 445.314C53.2001 445.23 53.4894 445.188 53.8161 445.188C54.6281 445.188 55.2628 445.445 55.7201 445.958C56.1868 446.462 56.4201 447.185 56.4201 448.128V453H55.3001V448.268C55.3001 446.849 54.6841 446.14 53.4521 446.14C53.2094 446.14 52.9714 446.173 52.7381 446.238C52.5048 446.303 52.2948 446.401 52.1081 446.532C51.9308 446.663 51.7861 446.826 51.6741 447.022C51.5621 447.218 51.5061 447.447 51.5061 447.708V453H50.3861V445.356ZM51.1028 442.892H55.7228V441.87H56.8148V443.858H51.1028V442.892ZM56.1788 438.902H57.2148V440.988H56.1788V438.902Z" fill="#1C1B1B"/>
<g clip-path="url(#clip3_1_65127)">
<path d="M277 482.5C276.3 482.5 275.708 482.258 275.225 481.775C274.742 481.292 274.5 480.7 274.5 480C274.5 479.3 274.742 478.708 275.225 478.225C275.708 477.742 276.3 477.5 277 477.5C277.7 477.5 278.292 477.742 278.775 478.225C279.258 478.708 279.5 479.3 279.5 480C279.5 480.7 279.258 481.292 278.775 481.775C278.292 482.258 277.7 482.5 277 482.5ZM273 488C272.45 488 271.979 487.804 271.588 487.413C271.196 487.021 271 486.55 271 486V472C271 471.45 271.196 470.979 271.588 470.588C271.979 470.196 272.45 470 273 470H274V468H276V470H284V468H286V470H287C287.55 470 288.021 470.196 288.413 470.588C288.804 470.979 289 471.45 289 472V486C289 486.55 288.804 487.021 288.413 487.413C288.021 487.804 287.55 488 287 488H273ZM273 486H287V476H273V486Z" fill="#6B7274"/>
</g>
<path d="M35.458 516.168C35.094 516.168 34.744 516.121 34.408 516.028C34.072 515.944 33.7827 515.823 33.54 515.664L33.96 514.838C34.3613 515.081 34.8513 515.202 35.43 515.202C36.074 515.202 36.5733 514.987 36.928 514.558C37.2827 514.119 37.46 513.517 37.46 512.752V511.604C37.46 510.848 37.2873 510.251 36.942 509.812C36.606 509.373 36.102 509.154 35.43 509.154C34.926 509.154 34.5107 509.261 34.184 509.476C33.8573 509.681 33.6053 509.971 33.428 510.344L32.518 509.882C32.7513 509.378 33.1107 508.972 33.596 508.664C34.0813 508.347 34.702 508.188 35.458 508.188C36.5033 508.188 37.2967 508.543 37.838 509.252C38.3887 509.952 38.664 510.927 38.664 512.178C38.664 513.429 38.384 514.409 37.824 515.118C37.264 515.818 36.4753 516.168 35.458 516.168ZM43.3639 516.168C42.9999 516.168 42.6499 516.121 42.3139 516.028C41.9779 515.944 41.6885 515.823 41.4459 515.664L41.8659 514.838C42.2672 515.081 42.7572 515.202 43.3359 515.202C43.9799 515.202 44.4792 514.987 44.8339 514.558C45.1885 514.119 45.3659 513.517 45.3659 512.752V511.604C45.3659 510.848 45.1932 510.251 44.8479 509.812C44.5119 509.373 44.0079 509.154 43.3359 509.154C42.8319 509.154 42.4165 509.261 42.0899 509.476C41.7632 509.681 41.5112 509.971 41.3339 510.344L40.4239 509.882C40.6572 509.378 41.0165 508.972 41.5019 508.664C41.9872 508.347 42.6079 508.188 43.3639 508.188C44.4092 508.188 45.2025 508.543 45.7439 509.252C46.2945 509.952 46.5699 510.927 46.5699 512.178C46.5699 513.429 46.2899 514.409 45.7299 515.118C45.1699 515.818 44.3812 516.168 43.3639 516.168ZM47.9377 518.114L51.5917 505.64H52.5997L48.9457 518.114H47.9377ZM57.6871 516.168C57.1644 516.168 56.6978 516.075 56.2871 515.888C55.8858 515.701 55.5451 515.44 55.2651 515.104C54.9851 514.759 54.7704 514.339 54.6211 513.844C54.4811 513.349 54.4111 512.794 54.4111 512.178C54.4111 511.581 54.4951 511.035 54.6631 510.54C54.8311 510.045 55.0691 509.625 55.3771 509.28C55.6944 508.935 56.0771 508.669 56.5251 508.482C56.9731 508.286 57.4771 508.188 58.0371 508.188C58.5411 508.188 58.9984 508.263 59.4091 508.412C59.8291 508.561 60.1838 508.776 60.4731 509.056C60.7718 509.327 61.0004 509.658 61.1591 510.05C61.3178 510.433 61.3971 510.862 61.3971 511.338V516H60.2771V511.492C60.2771 510.755 60.0718 510.181 59.6611 509.77C59.2598 509.359 58.7044 509.154 57.9951 509.154C57.2484 509.154 56.6651 509.383 56.2451 509.84C55.8251 510.288 55.6151 510.899 55.6151 511.674V512.682C55.6151 513.503 55.8018 514.129 56.1751 514.558C56.5484 514.987 57.1224 515.202 57.8971 515.202C57.9998 515.202 58.1024 515.202 58.2051 515.202C58.3171 515.193 58.4291 515.174 58.5411 515.146L58.6811 516.084C58.5224 516.131 58.3544 516.154 58.1771 516.154C57.9998 516.163 57.8364 516.168 57.6871 516.168ZM67.0285 516.168C66.5058 516.168 66.0392 516.075 65.6285 515.888C65.2272 515.701 64.8865 515.44 64.6065 515.104C64.3265 514.759 64.1118 514.339 63.9625 513.844C63.8225 513.349 63.7525 512.794 63.7525 512.178C63.7525 511.581 63.8365 511.035 64.0045 510.54C64.1725 510.045 64.4105 509.625 64.7185 509.28C65.0358 508.935 65.4185 508.669 65.8665 508.482C66.3145 508.286 66.8185 508.188 67.3785 508.188C67.8825 508.188 68.3398 508.263 68.7505 508.412C69.1705 508.561 69.5252 508.776 69.8145 509.056C70.1132 509.327 70.3418 509.658 70.5005 510.05C70.6592 510.433 70.7385 510.862 70.7385 511.338V516H69.6185V511.492C69.6185 510.755 69.4132 510.181 69.0025 509.77C68.6012 509.359 68.0458 509.154 67.3365 509.154C66.5898 509.154 66.0065 509.383 65.5865 509.84C65.1665 510.288 64.9565 510.899 64.9565 511.674V512.682C64.9565 513.503 65.1432 514.129 65.5165 514.558C65.8898 514.987 66.4638 515.202 67.2385 515.202C67.3412 515.202 67.4438 515.202 67.5465 515.202C67.6585 515.193 67.7705 515.174 67.8825 515.146L68.0225 516.084C67.8638 516.131 67.6958 516.154 67.5185 516.154C67.3412 516.163 67.1778 516.168 67.0285 516.168ZM72.3799 518.114L76.0339 505.64H77.0419L73.3879 518.114H72.3799ZM82.3253 516.168C81.3359 516.168 80.5566 515.902 79.9873 515.37C79.4179 514.829 79.1333 514.091 79.1333 513.158V508.356H80.2533V513.046C80.2533 513.746 80.4353 514.283 80.7993 514.656C81.1726 515.02 81.6813 515.202 82.3253 515.202C82.9693 515.202 83.4733 515.02 83.8373 514.656C84.2106 514.283 84.3973 513.746 84.3973 513.046V505.892H85.5173V513.158C85.5173 514.091 85.2326 514.829 84.6633 515.37C84.0939 515.902 83.3146 516.168 82.3253 516.168ZM91.3522 516.168C90.3629 516.168 89.5836 515.902 89.0142 515.37C88.4449 514.829 88.1602 514.091 88.1602 513.158V508.356H89.2802V513.046C89.2802 513.746 89.4622 514.283 89.8262 514.656C90.1996 515.02 90.7082 515.202 91.3522 515.202C91.9962 515.202 92.5002 515.02 92.8642 514.656C93.2376 514.283 93.4242 513.746 93.4242 513.046V505.892H94.5442V513.158C94.5442 514.091 94.2596 514.829 93.6902 515.37C93.1209 515.902 92.3416 516.168 91.3522 516.168ZM100.379 516.168C99.3899 516.168 98.6105 515.902 98.0412 515.37C97.4719 514.829 97.1872 514.091 97.1872 513.158V508.356H98.3072V513.046C98.3072 513.746 98.4892 514.283 98.8532 514.656C99.2265 515.02 99.7352 515.202 100.379 515.202C101.023 515.202 101.527 515.02 101.891 514.656C102.265 514.283 102.451 513.746 102.451 513.046V505.892H103.571V513.158C103.571 514.091 103.287 514.829 102.717 515.37C102.148 515.902 101.369 516.168 100.379 516.168ZM109.406 516.168C108.417 516.168 107.637 515.902 107.068 515.37C106.499 514.829 106.214 514.091 106.214 513.158V508.356H107.334V513.046C107.334 513.746 107.516 514.283 107.88 514.656C108.253 515.02 108.762 515.202 109.406 515.202C110.05 515.202 110.554 515.02 110.918 514.656C111.291 514.283 111.478 513.746 111.478 513.046V505.892H112.598V513.158C112.598 514.091 112.313 514.829 111.744 515.37C111.175 515.902 110.395 516.168 109.406 516.168Z" fill="#6B7274"/>
<path d="M19.834 545C19.15 545 18.646 544.826 18.322 544.478C17.998 544.13 17.836 543.644 17.836 543.02V535.118H19.798V543.398H21.202V545H19.834ZM22.9776 535.118H24.8316L25.4256 539.996L25.6416 542.768H25.7496L26.4336 539.996L27.7656 535.118H29.2596L30.5916 539.996L31.2756 542.768H31.3836L31.5996 539.996L32.1936 535.118H34.0116L32.6076 545H30.5196L29.0616 539.384L28.5396 537.206H28.4496L27.9276 539.384L26.4696 545H24.3816L22.9776 535.118ZM36.3699 538.934C36.3699 538.322 36.4719 537.77 36.6759 537.278C36.8919 536.774 37.1979 536.348 37.5939 536C37.9899 535.64 38.4639 535.37 39.0159 535.19C39.5799 534.998 40.2099 534.902 40.9059 534.902C42.0699 534.902 43.0299 535.154 43.7859 535.658C43.8579 534.95 44.2659 534.596 45.0099 534.596H47.4579V536.306H44.5419V536.36C45.1419 537.032 45.4419 537.89 45.4419 538.934V545H43.4799V539.06C43.4799 538.232 43.2519 537.602 42.7959 537.17C42.3399 536.726 41.7099 536.504 40.9059 536.504C40.1019 536.504 39.4719 536.726 39.0159 537.17C38.5599 537.602 38.3319 538.232 38.3319 539.06V541.328H38.4219C38.4939 541.088 38.5959 540.854 38.7279 540.626C38.8599 540.398 39.0279 540.2 39.2319 540.032C39.4359 539.852 39.6819 539.708 39.9699 539.6C40.2579 539.492 40.5939 539.438 40.9779 539.438H41.5179V541.328H40.7619C39.9819 541.328 39.3819 541.46 38.9619 541.724C38.5419 541.976 38.3319 542.372 38.3319 542.912V545H36.3699V538.934Z" fill="#1C1B1B"/>
</g>
</g>
<defs>
<clipPath id="clip0_1_65127">
<rect width="320" height="568" fill="white"/>
</clipPath>
<clipPath id="clip1_1_65127">
<path d="M0 58C0 42.536 12.536 30 28 30H292C307.464 30 320 42.536 320 58V544H0V58Z" fill="white"/>
</clipPath>
<clipPath id="clip2_1_65127">
<path d="M0 46C0 43.7909 1.79086 42 4 42H44C46.2091 42 48 43.7909 48 46V86C48 88.2091 46.2091 90 44 90H4C1.79086 90 0 88.2091 0 86V46Z" fill="white"/>
</clipPath>
<clipPath id="clip3_1_65127">
<path d="M256 462C256 459.791 257.791 458 260 458H300C302.209 458 304 459.791 304 462V494C304 496.209 302.209 498 300 498H260C257.791 498 256 496.209 256 494V462Z" fill="white"/>
</clipPath>
</defs>
</svg>
