<svg width="440" height="956" viewBox="0 0 440 956" fill="none" xmlns="http://www.w3.org/2000/svg">
<rect width="440" height="956" rx="60" fill="url(#paint0_linear_56_12)"/>
<path d="M157.221 451.18V455.156H163.633V458.852H157.221V463.164H164.473V467H152.433V447.344H164.473V451.18H157.221ZM166.77 457.144C166.77 455.203 167.19 453.476 168.03 451.964C168.87 450.433 170.036 449.248 171.53 448.408C173.042 447.549 174.75 447.12 176.654 447.12C178.987 447.12 180.984 447.736 182.646 448.968C184.307 450.2 185.418 451.88 185.978 454.008H180.714C180.322 453.187 179.762 452.561 179.034 452.132C178.324 451.703 177.512 451.488 176.598 451.488C175.123 451.488 173.928 452.001 173.014 453.028C172.099 454.055 171.642 455.427 171.642 457.144C171.642 458.861 172.099 460.233 173.014 461.26C173.928 462.287 175.123 462.8 176.598 462.8C177.512 462.8 178.324 462.585 179.034 462.156C179.762 461.727 180.322 461.101 180.714 460.28H185.978C185.418 462.408 184.307 464.088 182.646 465.32C180.984 466.533 178.987 467.14 176.654 467.14C174.75 467.14 173.042 466.72 171.53 465.88C170.036 465.021 168.87 463.836 168.03 462.324C167.19 460.812 166.77 459.085 166.77 457.144ZM198.206 467.196C196.358 467.196 194.659 466.767 193.11 465.908C191.579 465.049 190.356 463.855 189.442 462.324C188.546 460.775 188.098 459.039 188.098 457.116C188.098 455.193 188.546 453.467 189.442 451.936C190.356 450.405 191.579 449.211 193.11 448.352C194.659 447.493 196.358 447.064 198.206 447.064C200.054 447.064 201.743 447.493 203.274 448.352C204.823 449.211 206.036 450.405 206.914 451.936C207.81 453.467 208.258 455.193 208.258 457.116C208.258 459.039 207.81 460.775 206.914 462.324C206.018 463.855 204.804 465.049 203.274 465.908C201.743 466.767 200.054 467.196 198.206 467.196ZM198.206 462.828C199.774 462.828 201.024 462.305 201.958 461.26C202.91 460.215 203.386 458.833 203.386 457.116C203.386 455.38 202.91 453.999 201.958 452.972C201.024 451.927 199.774 451.404 198.206 451.404C196.619 451.404 195.35 451.917 194.398 452.944C193.464 453.971 192.998 455.361 192.998 457.116C192.998 458.852 193.464 460.243 194.398 461.288C195.35 462.315 196.619 462.828 198.206 462.828ZM223.718 447.344V451.18H215.71V455.324H221.702V459.048H215.71V467H210.922V447.344H223.718ZM231.022 463.304H237.294V467H226.234V447.344H231.022V463.304ZM248.874 467.196C247.026 467.196 245.327 466.767 243.778 465.908C242.247 465.049 241.024 463.855 240.11 462.324C239.214 460.775 238.766 459.039 238.766 457.116C238.766 455.193 239.214 453.467 240.11 451.936C241.024 450.405 242.247 449.211 243.778 448.352C245.327 447.493 247.026 447.064 248.874 447.064C250.722 447.064 252.411 447.493 253.942 448.352C255.491 449.211 256.704 450.405 257.582 451.936C258.478 453.467 258.926 455.193 258.926 457.116C258.926 459.039 258.478 460.775 257.582 462.324C256.686 463.855 255.472 465.049 253.942 465.908C252.411 466.767 250.722 467.196 248.874 467.196ZM248.874 462.828C250.442 462.828 251.692 462.305 252.626 461.26C253.578 460.215 254.054 458.833 254.054 457.116C254.054 455.38 253.578 453.999 252.626 452.972C251.692 451.927 250.442 451.404 248.874 451.404C247.287 451.404 246.018 451.917 245.066 452.944C244.132 453.971 243.666 455.361 243.666 457.116C243.666 458.852 244.132 460.243 245.066 461.288C246.018 462.315 247.287 462.828 248.874 462.828ZM288.637 447.344L283.513 467H277.717L274.581 454.064L271.333 467H265.537L260.553 447.344H265.677L268.505 461.652L272.005 447.344H277.269L280.629 461.652L283.485 447.344H288.637ZM135.852 489.344V509H131.064V489.344H135.852ZM156.906 509H152.118L144.11 496.876V509H139.322V489.344H144.11L152.118 501.524V489.344H156.906V509ZM177.961 509H173.173L165.165 496.876V509H160.377V489.344H165.165L173.173 501.524V489.344H177.961V509ZM190.727 509.196C188.879 509.196 187.181 508.767 185.631 507.908C184.101 507.049 182.878 505.855 181.963 504.324C181.067 502.775 180.619 501.039 180.619 499.116C180.619 497.193 181.067 495.467 181.963 493.936C182.878 492.405 184.101 491.211 185.631 490.352C187.181 489.493 188.879 489.064 190.727 489.064C192.575 489.064 194.265 489.493 195.795 490.352C197.345 491.211 198.558 492.405 199.435 493.936C200.331 495.467 200.779 497.193 200.779 499.116C200.779 501.039 200.331 502.775 199.435 504.324C198.539 505.855 197.326 507.049 195.795 507.908C194.265 508.767 192.575 509.196 190.727 509.196ZM190.727 504.828C192.295 504.828 193.546 504.305 194.479 503.26C195.431 502.215 195.907 500.833 195.907 499.116C195.907 497.38 195.431 495.999 194.479 494.972C193.546 493.927 192.295 493.404 190.727 493.404C189.141 493.404 187.871 493.917 186.919 494.944C185.986 495.971 185.519 497.361 185.519 499.116C185.519 500.852 185.986 502.243 186.919 503.288C187.871 504.315 189.141 504.828 190.727 504.828ZM221.895 489.344L214.923 509H208.931L201.959 489.344H207.055L211.927 504.184L216.827 489.344H221.895ZM236.132 505.528H228.796L227.62 509H222.608L229.72 489.344H235.264L242.376 509H237.308L236.132 505.528ZM234.9 501.832L232.464 494.636L230.056 501.832H234.9ZM258.681 489.344V493.18H253.473V509H248.685V493.18H243.477V489.344H258.681ZM265.872 489.344V509H261.084V489.344H265.872ZM278.637 509.196C276.789 509.196 275.091 508.767 273.541 507.908C272.011 507.049 270.788 505.855 269.873 504.324C268.977 502.775 268.529 501.039 268.529 499.116C268.529 497.193 268.977 495.467 269.873 493.936C270.788 492.405 272.011 491.211 273.541 490.352C275.091 489.493 276.789 489.064 278.637 489.064C280.485 489.064 282.175 489.493 283.705 490.352C285.255 491.211 286.468 492.405 287.345 493.936C288.241 495.467 288.689 497.193 288.689 499.116C288.689 501.039 288.241 502.775 287.345 504.324C286.449 505.855 285.236 507.049 283.705 507.908C282.175 508.767 280.485 509.196 278.637 509.196ZM278.637 504.828C280.205 504.828 281.456 504.305 282.389 503.26C283.341 502.215 283.817 500.833 283.817 499.116C283.817 497.38 283.341 495.999 282.389 494.972C281.456 493.927 280.205 493.404 278.637 493.404C277.051 493.404 275.781 493.917 274.829 494.944C273.896 495.971 273.429 497.361 273.429 499.116C273.429 500.852 273.896 502.243 274.829 503.288C275.781 504.315 277.051 504.828 278.637 504.828ZM308.937 509H304.149L296.141 496.876V509H291.353V489.344H296.141L304.149 501.524V489.344H308.937V509Z" fill="white"/>
<defs>
<linearGradient id="paint0_linear_56_12" x1="220" y1="0" x2="220" y2="956" gradientUnits="userSpaceOnUse">
<stop stop-color="#2A2C45"/>
<stop offset="0.296" stop-color="#245081"/>
<stop offset="0.881" stop-color="#CCCBEA"/>
</linearGradient>
</defs>
</svg>
